<svg width="18" height="18" viewBox="0 0 18 18" fill="none" xmlns="http://www.w3.org/2000/svg">
<path fill-rule="evenodd" clip-rule="evenodd" d="M9 2.8125C6.327 2.8125 4.3125 4.65375 4.3125 6.75V7.69575C4.374 7.6905 4.437 7.6875 4.5 7.6875H6.75C6.89918 7.6875 7.04226 7.74676 7.14775 7.85225C7.25324 7.95774 7.3125 8.10082 7.3125 8.25V13.5C7.3125 13.6492 7.25324 13.7923 7.14775 13.8977C7.04226 14.0032 6.89918 14.0625 6.75 14.0625H4.5C3.95299 14.0625 3.42839 13.8452 3.04159 13.4584C2.6548 13.0716 2.4375 12.547 2.4375 12V9.75C2.4375 9.1095 2.73 8.53725 3.1875 8.15925V6.75C3.1875 3.876 5.874 1.6875 9 1.6875C12.126 1.6875 14.8125 3.876 14.8125 6.75V8.15925C15.27 8.53725 15.5625 9.1095 15.5625 9.75V12C15.5625 12.547 15.3452 13.0716 14.9584 13.4584C14.5716 13.8452 14.047 14.0625 13.5 14.0625H11.25C11.1008 14.0625 10.9577 14.0032 10.8523 13.8977C10.7468 13.7923 10.6875 13.6492 10.6875 13.5V8.25C10.6875 8.10082 10.7468 7.95774 10.8523 7.85225C10.9577 7.74676 11.1008 7.6875 11.25 7.6875H13.5C13.563 7.6875 13.626 7.6905 13.6875 7.69575V6.75C13.6875 4.65375 11.673 2.8125 9 2.8125ZM4.5 8.8125C3.9825 8.8125 3.5625 9.2325 3.5625 9.75V12C3.5625 12.5175 3.9825 12.9375 4.5 12.9375H6.1875V8.8125H4.5ZM14.4375 9.75C14.4375 9.2325 14.0175 8.8125 13.5 8.8125H11.8125V12.9375H13.5C14.0175 12.9375 14.4375 12.5175 14.4375 12V9.75Z" fill="#144C4E"/>
</svg>
