<svg width="24" height="24" viewBox="0 0 24 24" fill="none" xmlns="http://www.w3.org/2000/svg">
<path d="M10.521 7.9502V10.8772C11.731 10.9532 14.258 10.9442 14.258 9.4472C14.258 7.9502 12.132 7.9502 10.521 7.9502Z" stroke="#DAFF99"/>
<path d="M13.425 6.432C15.408 6.622 16.963 7.21 17.135 8.96C17.252 10.236 16.697 10.995 15.78 11.423C17.261 11.782 18.162 12.625 17.976 14.495C17.749 16.838 15.941 17.447 13.356 17.575L13.36 19.995L11.838 19.997L11.834 17.577C11.445 17.572 11.015 17.592 10.584 17.579L10.588 19.999L9.068 20L9.064 17.58L6.02 17.522L6.276 15.754C6.276 15.754 7 15.766 7.405 15.766C7.828 15.764 7.954 15.473 7.985 15.281L7.977 11.403L7.989 8.643C7.943 8.355 7.741 8.009 7.119 7.999C7.152 7.969 6.004 8 6.004 8L6 6.38L9.12 6.375L9.116 4.005L10.687 4.003L10.691 6.373C11.094 6.363 11.491 6.37 11.896 6.372L11.892 4.002L13.422 4L13.425 6.432Z" stroke="#DAFF99"/>
<path d="M10.5 15.637C11.491 15.673 15.006 15.884 14.99 14.219C15.006 12.506 11.478 12.736 10.5 12.728V15.637Z" stroke="#DAFF99"/>
</svg>
