<svg width="64" height="51" viewBox="0 0 64 51" fill="none" xmlns="http://www.w3.org/2000/svg">
<g clip-path="url(#clip0_294_2617)">
<path fill-rule="evenodd" clip-rule="evenodd" d="M13.2928 0.0065918C9.64101 0.0065918 6.93888 3.20284 7.05988 6.66909C7.17601 9.99922 7.02513 14.3122 5.93938 17.8295C4.84976 21.3566 3.00826 23.5917 -0.000244141 23.8786V27.1176C3.00826 27.4051 4.84976 29.6391 5.93926 33.1667C7.02513 36.684 7.17588 40.997 7.05976 44.3271C6.93876 47.7928 9.64088 50.9896 13.2933 50.9896H50.7116C54.3634 50.9896 57.065 47.7933 56.944 44.3271C56.8279 40.997 56.9788 36.684 58.0645 33.1667C59.1541 29.6391 60.9911 27.4042 63.9998 27.1176V23.8786C60.9913 23.5911 59.1543 21.3571 58.0645 17.8295C56.9786 14.3127 56.8279 9.99922 56.944 6.66909C57.065 3.20334 54.3634 0.0065918 50.7116 0.0065918H13.2923H13.2928ZM43.3896 31.39C43.3896 36.1628 39.8295 39.0575 33.9214 39.0575H23.8641C23.5764 39.0575 23.3005 38.9432 23.0971 38.7397C22.8937 38.5363 22.7794 38.2604 22.7794 37.9727V13.0236C22.7794 12.7359 22.8937 12.46 23.0971 12.2566C23.3005 12.0531 23.5764 11.9388 23.8641 11.9388H33.8641C38.7905 11.9388 42.0236 14.6073 42.0236 18.7043C42.0236 21.58 39.8486 24.1543 37.0778 24.6053V24.7553C40.8498 25.1691 43.3896 27.7816 43.3896 31.39ZM32.8248 15.3775H27.0903V23.4775H31.9201C35.6539 23.4775 37.7126 21.974 37.7126 19.2866C37.7123 16.7681 35.9423 15.3775 32.8248 15.3775ZM27.0903 26.6913V35.6177H33.0358C36.9233 35.6177 38.9824 34.0578 38.9824 31.1263C38.9824 28.1948 36.8655 26.6908 32.7858 26.6908H27.0903V26.6913Z" fill="#144C4E"/>
</g>
<defs>
<clipPath id="clip0_294_2617">
<rect width="64" height="50.9952" fill="white"/>
</clipPath>
</defs>
</svg>
