<svg width="24" height="25" viewBox="0 0 24 25" fill="none" xmlns="http://www.w3.org/2000/svg">
<g clip-path="url(#clip0_288_3196)">
<path d="M11.9369 4.26978C9.87006 4.26978 8.19454 6.22598 8.19454 8.63907C8.19454 10.3126 9.00046 11.7661 10.1839 12.5L8.81156 13.136L5.15958 14.8298C4.80678 15.0062 4.6307 15.3054 4.6307 15.7287V19.7508C4.65972 20.2536 4.96144 20.7223 5.45062 20.7303H18.443C19.0015 20.6817 19.284 20.2319 19.2895 19.7508V15.7287C19.2895 15.3054 19.1134 15.0062 18.7607 14.8298L15.2409 13.136L13.7781 12.443C14.913 11.6926 15.6794 10.2706 15.6794 8.63909C15.6793 6.22598 14.0038 4.26978 11.9369 4.26978ZM5.90046 5.80626C5.011 5.84004 4.30608 6.22491 3.77052 6.83817C3.17812 7.57653 2.88932 8.45317 2.88374 9.32525C2.92012 10.6148 3.49712 11.8356 4.52432 12.4742L0.42326 14.38C0.141 14.4858 0 14.7327 0 15.1208V18.3488C0.02204 18.7769 0.24432 19.1367 0.6611 19.1429H3.38678V15.7287C3.43188 14.816 3.86052 14.0782 4.6307 13.7181L7.35564 12.4218C7.56732 12.2983 7.77026 12.1304 7.9643 11.9187C6.84078 10.1852 6.68476 8.10891 7.40884 6.28272C6.9379 5.9945 6.40864 5.80928 5.90046 5.80626ZM18.0722 5.80626C17.4905 5.81844 16.953 6.03264 16.5114 6.33514C17.2157 8.17788 17.0215 10.2555 15.9818 11.8655C16.2111 12.1301 16.4498 12.3331 16.6968 12.4742L19.3161 13.7181C20.1141 14.1557 20.5255 14.9001 20.5334 15.7288V19.1429H23.3381C23.7994 19.1031 23.996 18.7352 24 18.3488V15.1209C24 14.768 23.859 14.5211 23.5767 14.38L19.5281 12.4476C20.5781 11.6734 21.1053 10.5132 21.1155 9.32525C21.0876 8.38501 20.8004 7.51197 20.2287 6.83817C19.6314 6.19019 18.8905 5.81312 18.0722 5.80626Z" fill="#FFFBFB"/>
</g>
<defs>
<clipPath id="clip0_288_3196">
<rect width="24" height="24" fill="white" transform="translate(0 0.5)"/>
</clipPath>
</defs>
</svg>
