<svg width="20" height="21" viewBox="0 0 20 21" fill="none" xmlns="http://www.w3.org/2000/svg">
<path d="M10 4.25C8.345 4.25 6.90625 5.02375 5.87875 6.16437C5.79375 6.15375 5.7175 6.125 5.625 6.125C4.25 6.125 3.125 7.25 3.125 8.625C2.04375 9.28438 1.25 10.3975 1.25 11.75C1.25 13.8125 2.9375 15.5 5 15.5H8.125V14.25H5C3.61312 14.25 2.5 13.1369 2.5 11.75C2.49988 11.2587 2.64428 10.7782 2.91522 10.3683C3.18616 9.95849 3.57167 9.63738 4.02375 9.445L4.45312 9.27L4.39438 8.80125C4.38641 8.74268 4.37995 8.68391 4.375 8.625C4.37364 8.43561 4.41569 8.24842 4.49792 8.0778C4.58014 7.90718 4.70036 7.75766 4.84934 7.64072C4.99833 7.52377 5.17212 7.44251 5.35739 7.40317C5.54265 7.36383 5.73447 7.36745 5.91813 7.41375L6.30875 7.51187L6.54313 7.19937C6.95171 6.67139 7.47559 6.2438 8.07472 5.94927C8.67385 5.65474 9.33239 5.50107 10 5.5C12.0481 5.5 13.7575 6.90875 14.2381 8.80062L14.3556 9.28875L14.8825 9.27C15.0144 9.2625 15.0437 9.25 15 9.25C16.3869 9.25 17.5 10.3631 17.5 11.75C17.5 13.1369 16.3869 14.25 15 14.25H11.875V15.5H15C17.0625 15.5 18.75 13.8125 18.75 11.75C18.75 9.7775 17.195 8.1975 15.2537 8.05875C14.49 5.85875 12.4537 4.25 10 4.25ZM9.375 11.75V16.75H7.5L10 19.25L12.5 16.75H10.625V11.75H9.375Z" fill="#DAFF99"/>
</svg>
