<svg width="32" height="47" viewBox="0 0 32 47" fill="none" xmlns="http://www.w3.org/2000/svg">
<path d="M15.991 23.3651C15.991 19.0736 19.5667 15.5769 23.9955 15.5769C28.4061 15.5769 32 19.056 32 23.3651C32 27.6565 28.4243 31.1533 23.9955 31.1533C19.5848 31.1533 15.991 27.6565 15.991 23.3651Z" fill="#144C4E"/>
<path d="M0 38.9232C0 34.6317 3.57572 31.135 8.00452 31.135H16.009V38.9232C16.009 43.2146 12.4333 46.7114 8.00452 46.7114C3.57572 46.7114 0 43.2323 0 38.9232Z" fill="#144C4E"/>
<path d="M15.991 0.0176603V15.5763H23.9955C28.4061 15.5763 32 12.0973 32 7.78817C32 3.49673 28.4243 0 23.9955 0H15.991V0.0176603Z" fill="#144C4E"/>
<path d="M0 7.80624C0 12.0977 3.57572 15.5944 8.00452 15.5944H16.009V0.0180664H8.00452C3.57572 0.0180664 0 3.49714 0 7.80624Z" fill="#144C4E"/>
<path d="M0 23.3651C0 27.6565 3.57572 31.1533 8.00452 31.1533H16.009V15.5769H8.00452C3.57572 15.5769 0 19.0736 0 23.3651Z" fill="#144C4E"/>
</svg>
