<svg width="251" height="250" viewBox="0 0 251 250" fill="none" xmlns="http://www.w3.org/2000/svg">
<path d="M224.04 197.34C224.315 196.405 224.456 195.435 224.46 194.46C224.46 186.24 214.46 179.58 202.08 179.58C189.7 179.58 179.7 186.24 179.7 194.46C179.702 195.436 179.847 196.406 180.13 197.34H224.04Z" fill="#DAFF99"/>
<path d="M224.04 198.34H180.13C179.907 198.349 179.687 198.283 179.506 198.152C179.325 198.022 179.192 197.835 179.13 197.62C178.823 196.595 178.665 195.53 178.66 194.46C178.66 185.7 189.15 178.58 202.04 178.58C214.93 178.58 225.42 185.7 225.42 194.46C225.42 195.531 225.262 196.596 224.95 197.62C224.892 197.82 224.773 197.997 224.61 198.126C224.447 198.255 224.248 198.33 224.04 198.34ZM180.9 196.34H223.26C223.39 195.722 223.457 195.092 223.46 194.46C223.46 186.8 213.87 180.58 202.08 180.58C190.29 180.58 180.7 186.8 180.7 194.46C180.703 195.092 180.77 195.722 180.9 196.34Z" fill="#052C2D"/>
<path d="M202.08 189.46C201.815 189.46 201.56 189.355 201.373 189.167C201.185 188.98 201.08 188.725 201.08 188.46V179.58C201.08 179.315 201.185 179.061 201.373 178.873C201.56 178.685 201.815 178.58 202.08 178.58C202.345 178.58 202.6 178.685 202.787 178.873C202.975 179.061 203.08 179.315 203.08 179.58V188.46C203.08 188.725 202.975 188.98 202.787 189.167C202.6 189.355 202.345 189.46 202.08 189.46Z" fill="#052C2D"/>
<path d="M237.93 197.34H13.27C10.0833 197.34 7.5 199.923 7.5 203.11V204.05C7.5 207.237 10.0833 209.82 13.27 209.82H237.93C241.117 209.82 243.7 207.237 243.7 204.05V203.11C243.7 199.923 241.117 197.34 237.93 197.34Z" fill="#052C2D"/>
<path d="M237.93 210.82H13.27C11.4753 210.817 9.75486 210.103 8.48581 208.834C7.21676 207.565 6.50265 205.845 6.5 204.05V203.11C6.50265 201.315 7.21676 199.595 8.48581 198.326C9.75486 197.057 11.4753 196.342 13.27 196.34H237.93C239.725 196.342 241.445 197.057 242.714 198.326C243.983 199.595 244.697 201.315 244.7 203.11V204.05C244.697 205.845 243.983 207.565 242.714 208.834C241.445 210.103 239.725 210.817 237.93 210.82ZM13.27 198.34C12.0057 198.342 10.794 198.846 9.90002 199.74C9.00604 200.634 8.50264 201.846 8.5 203.11V204.05C8.50264 205.314 9.00604 206.526 9.90002 207.42C10.794 208.314 12.0057 208.817 13.27 208.82H237.93C239.194 208.817 240.406 208.314 241.3 207.42C242.194 206.526 242.697 205.314 242.7 204.05V203.11C242.697 201.846 242.194 200.634 241.3 199.74C240.406 198.846 239.194 198.342 237.93 198.34H13.27Z" fill="#052C2D"/>
<path d="M196.9 48.02H54.3001C48.7827 48.02 44.3101 52.4927 44.3101 58.01V160.92C44.3101 166.437 48.7827 170.91 54.3001 170.91H196.9C202.417 170.91 206.89 166.437 206.89 160.92V58.01C206.89 52.4927 202.417 48.02 196.9 48.02Z" fill="#DAFF99"/>
<path d="M196.9 171.91H54.3C51.3827 171.91 48.5848 170.751 46.5219 168.688C44.459 166.625 43.3 163.827 43.3 160.91V58.0098C43.3 55.0924 44.459 52.2945 46.5219 50.2316C48.5848 48.1687 51.3827 47.0098 54.3 47.0098H196.9C199.817 47.0098 202.615 48.1687 204.678 50.2316C206.741 52.2945 207.9 55.0924 207.9 58.0098V160.91C207.9 163.827 206.741 166.625 204.678 168.688C202.615 170.751 199.817 171.91 196.9 171.91ZM54.3 49.0198C51.9131 49.0198 49.6239 49.968 47.9361 51.6558C46.2483 53.3436 45.3 55.6328 45.3 58.0198V160.91C45.3 163.297 46.2483 165.586 47.9361 167.274C49.6239 168.962 51.9131 169.91 54.3 169.91H196.9C199.287 169.91 201.576 168.962 203.264 167.274C204.952 165.586 205.9 163.297 205.9 160.91V58.0098C205.9 55.6228 204.952 53.3336 203.264 51.6458C201.576 49.958 199.287 49.0098 196.9 49.0098L54.3 49.0198Z" fill="#052C2D"/>
<path d="M154.42 197.34H96.78L102.8 170.91H148.4L154.42 197.34Z" fill="#DAFF99"/>
<path d="M154.42 198.34H96.7801C96.6299 198.339 96.4818 198.305 96.3467 198.239C96.2117 198.173 96.0932 198.078 96.0001 197.96C95.9078 197.843 95.8429 197.707 95.81 197.561C95.7772 197.416 95.7772 197.265 95.8101 197.12L101.81 170.69C101.861 170.464 101.988 170.263 102.171 170.121C102.353 169.979 102.579 169.904 102.81 169.91H148.41C148.641 169.904 148.867 169.979 149.05 170.121C149.232 170.263 149.359 170.464 149.41 170.69L155.41 197.12C155.443 197.265 155.443 197.416 155.41 197.561C155.377 197.707 155.312 197.843 155.22 197.96C155.125 198.08 155.003 198.177 154.864 198.243C154.726 198.309 154.574 198.342 154.42 198.34ZM98.0401 196.34H153.16L147.6 171.91H103.6L98.0401 196.34Z" fill="#052C2D"/>
<path d="M195.8 58.2598H55.3899V149.47H195.8V58.2598Z" fill="white"/>
<path d="M195.81 150.47H55.3899C55.1247 150.47 54.8703 150.364 54.6828 150.177C54.4952 149.989 54.3899 149.735 54.3899 149.47V58.2598C54.3899 57.9945 54.4952 57.7402 54.6828 57.5527C54.8703 57.3651 55.1247 57.2598 55.3899 57.2598H195.81C196.075 57.2598 196.329 57.3651 196.517 57.5527C196.705 57.7402 196.81 57.9945 196.81 58.2598V149.47C196.81 149.735 196.705 149.989 196.517 150.177C196.329 150.364 196.075 150.47 195.81 150.47ZM56.3899 148.47H194.81V59.2598H56.3899V148.47Z" fill="#052C2D"/>
<path d="M96.7799 58.2598H55.3899V149.47H96.7799V58.2598Z" fill="white"/>
<path d="M96.7799 150.47H55.3899C55.1247 150.47 54.8703 150.364 54.6828 150.177C54.4952 149.989 54.3899 149.735 54.3899 149.47V58.2598C54.3899 57.9945 54.4952 57.7402 54.6828 57.5527C54.8703 57.3651 55.1247 57.2598 55.3899 57.2598H96.7799C97.0451 57.2598 97.2995 57.3651 97.487 57.5527C97.6745 57.7402 97.7799 57.9945 97.7799 58.2598V149.47C97.7799 149.735 97.6745 149.989 97.487 150.177C97.2995 150.364 97.0451 150.47 96.7799 150.47ZM56.3899 148.47H95.7799V59.2598H56.3899V148.47Z" fill="#052C2D"/>
<path d="M195.8 58.2598H96.78V149.47H195.8V58.2598Z" fill="#052C2D"/>
<path d="M195.81 150.47H96.8101C96.5448 150.47 96.2905 150.364 96.103 150.177C95.9154 149.989 95.8101 149.735 95.8101 149.47V58.2598C95.8101 57.9945 95.9154 57.7402 96.103 57.5527C96.2905 57.3651 96.5448 57.2598 96.8101 57.2598H195.81C196.075 57.2598 196.33 57.3651 196.517 57.5527C196.705 57.7402 196.81 57.9945 196.81 58.2598V149.47C196.81 149.735 196.705 149.989 196.517 150.177C196.33 150.364 196.075 150.47 195.81 150.47ZM97.8101 148.47H194.81V59.2598H97.8101V148.47Z" fill="#052C2D"/>
<path d="M84.32 70.7998H67.52C67.2548 70.7998 67.0004 70.6944 66.8129 70.5069C66.6254 70.3194 66.52 70.065 66.52 69.7998C66.52 69.5346 66.6254 69.2802 66.8129 69.0927C67.0004 68.9052 67.2548 68.7998 67.52 68.7998H84.32C84.5852 68.7998 84.8396 68.9052 85.0271 69.0927C85.2147 69.2802 85.32 69.5346 85.32 69.7998C85.32 70.065 85.2147 70.3194 85.0271 70.5069C84.8396 70.6944 84.5852 70.7998 84.32 70.7998Z" fill="#052C2D"/>
<path d="M87.2 80.6401H73.04C72.7748 80.6401 72.5205 80.5348 72.3329 80.3472C72.1454 80.1597 72.04 79.9054 72.04 79.6401C72.04 79.3749 72.1454 79.1206 72.3329 78.933C72.5205 78.7455 72.7748 78.6401 73.04 78.6401H87.2C87.4653 78.6401 87.7196 78.7455 87.9072 78.933C88.0947 79.1206 88.2 79.3749 88.2 79.6401C88.2 79.9054 88.0947 80.1597 87.9072 80.3472C87.7196 80.5348 87.4653 80.6401 87.2 80.6401Z" fill="#052C2D"/>
<path d="M89.1201 90.48H77.3601C77.0949 90.48 76.8405 90.3746 76.653 90.1871C76.4655 89.9996 76.3601 89.7452 76.3601 89.48C76.3601 89.2148 76.4655 88.9604 76.653 88.7729C76.8405 88.5853 77.0949 88.48 77.3601 88.48H89.1201C89.3853 88.48 89.6397 88.5853 89.8272 88.7729C90.0148 88.9604 90.1201 89.2148 90.1201 89.48C90.1201 89.7452 90.0148 89.9996 89.8272 90.1871C89.6397 90.3746 89.3853 90.48 89.1201 90.48Z" fill="#052C2D"/>
<path d="M85.2799 100.32H70.3999C70.1347 100.32 69.8803 100.214 69.6928 100.027C69.5053 99.8394 69.3999 99.585 69.3999 99.3198C69.3999 99.0546 69.5053 98.8003 69.6928 98.6127C69.8803 98.4252 70.1347 98.3198 70.3999 98.3198H85.2799C85.5451 98.3198 85.7995 98.4252 85.987 98.6127C86.1745 98.8003 86.2799 99.0546 86.2799 99.3198C86.2799 99.585 86.1745 99.8394 85.987 100.027C85.7995 100.214 85.5451 100.32 85.2799 100.32Z" fill="#052C2D"/>
<path d="M81.28 110.16H67.52C67.2548 110.16 67.0004 110.055 66.8129 109.867C66.6254 109.68 66.52 109.425 66.52 109.16C66.52 108.895 66.6254 108.641 66.8129 108.453C67.0004 108.266 67.2548 108.16 67.52 108.16H81.28C81.5452 108.16 81.7996 108.266 81.9871 108.453C82.1747 108.641 82.28 108.895 82.28 109.16C82.28 109.425 82.1747 109.68 81.9871 109.867C81.7996 110.055 81.5452 110.16 81.28 110.16Z" fill="#052C2D"/>
<path d="M84.3199 120H72.1599C71.8947 120 71.6403 119.895 71.4528 119.707C71.2653 119.52 71.1599 119.265 71.1599 119C71.1599 118.735 71.2653 118.48 71.4528 118.293C71.6403 118.105 71.8947 118 72.1599 118H84.3199C84.5851 118 84.8395 118.105 85.027 118.293C85.2146 118.48 85.3199 118.735 85.3199 119C85.3199 119.265 85.2146 119.52 85.027 119.707C84.8395 119.895 84.5851 120 84.3199 120Z" fill="#052C2D"/>
<path d="M80.12 129.84H67.52C67.2548 129.84 67.0004 129.734 66.8129 129.547C66.6254 129.359 66.52 129.105 66.52 128.84C66.52 128.575 66.6254 128.32 66.8129 128.133C67.0004 127.945 67.2548 127.84 67.52 127.84H80.12C80.3852 127.84 80.6396 127.945 80.8271 128.133C81.0147 128.32 81.12 128.575 81.12 128.84C81.12 129.105 81.0147 129.359 80.8271 129.547C80.6396 129.734 80.3852 129.84 80.12 129.84Z" fill="#052C2D"/>
<path d="M84.3199 139.68H72.1599C71.8947 139.68 71.6403 139.575 71.4528 139.387C71.2653 139.2 71.1599 138.945 71.1599 138.68C71.1599 138.415 71.2653 138.161 71.4528 137.973C71.6403 137.786 71.8947 137.68 72.1599 137.68H84.3199C84.5851 137.68 84.8395 137.786 85.027 137.973C85.2146 138.161 85.3199 138.415 85.3199 138.68C85.3199 138.945 85.2146 139.2 85.027 139.387C84.8395 139.575 84.5851 139.68 84.3199 139.68Z" fill="#052C2D"/>
<path d="M126.6 70.7998H109.8C109.535 70.7998 109.28 70.6944 109.093 70.5069C108.905 70.3194 108.8 70.065 108.8 69.7998C108.8 69.5346 108.905 69.2802 109.093 69.0927C109.28 68.9052 109.535 68.7998 109.8 68.7998H126.6C126.865 68.7998 127.12 68.9052 127.307 69.0927C127.495 69.2802 127.6 69.5346 127.6 69.7998C127.6 70.065 127.495 70.3194 127.307 70.5069C127.12 70.6944 126.865 70.7998 126.6 70.7998Z" fill="white"/>
<path d="M149.76 80.6401H115.28C115.015 80.6401 114.76 80.5348 114.573 80.3472C114.385 80.1597 114.28 79.9054 114.28 79.6401C114.28 79.3749 114.385 79.1206 114.573 78.933C114.76 78.7455 115.015 78.6401 115.28 78.6401H149.76C150.025 78.6401 150.28 78.7455 150.467 78.933C150.655 79.1206 150.76 79.3749 150.76 79.6401C150.76 79.9054 150.655 80.1597 150.467 80.3472C150.28 80.5348 150.025 80.6401 149.76 80.6401Z" fill="#FFBC0E"/>
<path d="M141.2 90.48H115.28C115.015 90.48 114.76 90.3746 114.573 90.1871C114.385 89.9996 114.28 89.7452 114.28 89.48C114.28 89.2148 114.385 88.9604 114.573 88.7729C114.76 88.5853 115.015 88.48 115.28 88.48H141.2C141.465 88.48 141.72 88.5853 141.907 88.7729C142.095 88.9604 142.2 89.2148 142.2 89.48C142.2 89.7452 142.095 89.9996 141.907 90.1871C141.72 90.3746 141.465 90.48 141.2 90.48Z" fill="#FFBC0E"/>
<path d="M127.52 100.32H112.6C112.335 100.32 112.081 100.214 111.893 100.027C111.705 99.8394 111.6 99.585 111.6 99.3198C111.6 99.0546 111.705 98.8003 111.893 98.6127C112.081 98.4252 112.335 98.3198 112.6 98.3198H127.48C127.745 98.3198 128 98.4252 128.187 98.6127C128.375 98.8003 128.48 99.0546 128.48 99.3198C128.48 99.585 128.375 99.8394 128.187 100.027C128 100.214 127.745 100.32 127.48 100.32H127.52Z" fill="white"/>
<path d="M133.44 110.16H116.6C116.335 110.16 116.081 110.055 115.893 109.867C115.705 109.68 115.6 109.425 115.6 109.16C115.6 108.895 115.705 108.641 115.893 108.453C116.081 108.266 116.335 108.16 116.6 108.16H133.4C133.665 108.16 133.92 108.266 134.107 108.453C134.295 108.641 134.4 108.895 134.4 109.16C134.4 109.425 134.295 109.68 134.107 109.867C133.92 110.055 133.665 110.16 133.4 110.16H133.44Z" fill="#F56132"/>
<path d="M142 120H116.06C115.795 120 115.54 119.895 115.353 119.707C115.165 119.52 115.06 119.265 115.06 119C115.06 118.735 115.165 118.48 115.353 118.293C115.54 118.105 115.795 118 116.06 118H142C142.265 118 142.52 118.105 142.707 118.293C142.895 118.48 143 118.735 143 119C143 119.265 142.895 119.52 142.707 119.707C142.52 119.895 142.265 120 142 120Z" fill="white"/>
<path d="M122.36 129.84H109.76C109.495 129.84 109.24 129.734 109.053 129.547C108.865 129.359 108.76 129.105 108.76 128.84C108.76 128.575 108.865 128.32 109.053 128.133C109.24 127.945 109.495 127.84 109.76 127.84H122.36C122.625 127.84 122.88 127.945 123.067 128.133C123.255 128.32 123.36 128.575 123.36 128.84C123.36 129.105 123.255 129.359 123.067 129.547C122.88 129.734 122.625 129.84 122.36 129.84Z" fill="white"/>
<path d="M142 139.68H114.4C114.135 139.68 113.88 139.575 113.693 139.387C113.505 139.2 113.4 138.945 113.4 138.68C113.4 138.415 113.505 138.161 113.693 137.973C113.88 137.786 114.135 137.68 114.4 137.68H142C142.265 137.68 142.519 137.786 142.707 137.973C142.895 138.161 143 138.415 143 138.68C143 138.945 142.895 139.2 142.707 139.387C142.519 139.575 142.265 139.68 142 139.68Z" fill="#70CC40"/>
<path d="M168.44 139.68H150.32C150.055 139.68 149.8 139.575 149.613 139.387C149.425 139.2 149.32 138.945 149.32 138.68C149.32 138.415 149.425 138.161 149.613 137.973C149.8 137.786 150.055 137.68 150.32 137.68H168.44C168.705 137.68 168.96 137.786 169.147 137.973C169.335 138.161 169.44 138.415 169.44 138.68C169.44 138.945 169.335 139.2 169.147 139.387C168.96 139.575 168.705 139.68 168.44 139.68Z" fill="#FFBC0E"/>
<path d="M162.6 90.48H149.8C149.535 90.48 149.28 90.3746 149.093 90.1871C148.905 89.9996 148.8 89.7452 148.8 89.48C148.8 89.2148 148.905 88.9604 149.093 88.7729C149.28 88.5853 149.535 88.48 149.8 88.48H162.6C162.865 88.48 163.12 88.5853 163.307 88.7729C163.495 88.9604 163.6 89.2148 163.6 89.48C163.6 89.7452 163.495 89.9996 163.307 90.1871C163.12 90.3746 162.865 90.48 162.6 90.48Z" fill="white"/>
<path d="M180.81 80.6401H156.16C155.895 80.6401 155.64 80.5348 155.453 80.3472C155.265 80.1597 155.16 79.9054 155.16 79.6401C155.16 79.3749 155.265 79.1206 155.453 78.933C155.64 78.7455 155.895 78.6401 156.16 78.6401H180.81C181.075 78.6401 181.329 78.7455 181.517 78.933C181.705 79.1206 181.81 79.3749 181.81 79.6401C181.81 79.9054 181.705 80.1597 181.517 80.3472C181.329 80.5348 181.075 80.6401 180.81 80.6401Z" fill="#DAFF99"/>
<path d="M176.72 90.48H169.52C169.255 90.48 169 90.3746 168.813 90.1871C168.625 89.9996 168.52 89.7452 168.52 89.48C168.52 89.2148 168.625 88.9604 168.813 88.7729C169 88.5853 169.255 88.48 169.52 88.48H176.72C176.985 88.48 177.24 88.5853 177.427 88.7729C177.615 88.9604 177.72 89.2148 177.72 89.48C177.72 89.7452 177.615 89.9996 177.427 90.1871C177.24 90.3746 176.985 90.48 176.72 90.48Z" fill="#F56132"/>
<path d="M145.6 110.16H138.4C138.135 110.16 137.88 110.055 137.693 109.867C137.505 109.68 137.4 109.425 137.4 109.16C137.4 108.895 137.505 108.641 137.693 108.453C137.88 108.266 138.135 108.16 138.4 108.16H145.6C145.865 108.16 146.119 108.266 146.307 108.453C146.495 108.641 146.6 108.895 146.6 109.16C146.6 109.425 146.495 109.68 146.307 109.867C146.119 110.055 145.865 110.16 145.6 110.16Z" fill="#F56132"/>
<path d="M180.81 110.16H151.52C151.255 110.16 151 110.055 150.813 109.867C150.625 109.68 150.52 109.425 150.52 109.16C150.52 108.895 150.625 108.641 150.813 108.453C151 108.266 151.255 108.16 151.52 108.16H180.81C181.075 108.16 181.33 108.266 181.517 108.453C181.705 108.641 181.81 108.895 181.81 109.16C181.81 109.425 181.705 109.68 181.517 109.867C181.33 110.055 181.075 110.16 180.81 110.16Z" fill="#FFBC0E"/>
<path d="M156.16 120H149.76C149.495 120 149.24 119.895 149.053 119.707C148.865 119.52 148.76 119.265 148.76 119C148.76 118.735 148.865 118.48 149.053 118.293C149.24 118.105 149.495 118 149.76 118H156.16C156.425 118 156.68 118.105 156.867 118.293C157.055 118.48 157.16 118.735 157.16 119C157.16 119.265 157.055 119.52 156.867 119.707C156.68 119.895 156.425 120 156.16 120Z" fill="#DAFF99"/>
<path d="M180.81 139.68H176.72C176.455 139.68 176.2 139.575 176.013 139.387C175.825 139.2 175.72 138.945 175.72 138.68C175.72 138.415 175.825 138.161 176.013 137.973C176.2 137.786 176.455 137.68 176.72 137.68H180.81C181.075 137.68 181.33 137.786 181.517 137.973C181.705 138.161 181.81 138.415 181.81 138.68C181.81 138.945 181.705 139.2 181.517 139.387C181.33 139.575 181.075 139.68 180.81 139.68Z" fill="white"/>
<path d="M234.58 40H173.31C170.902 40 168.95 41.952 168.95 44.36V90.96C168.95 93.368 170.902 95.32 173.31 95.32H234.58C236.988 95.32 238.94 93.368 238.94 90.96V44.36C238.94 41.952 236.988 40 234.58 40Z" fill="white"/>
<path d="M234.6 96.32H173.31C171.889 96.3174 170.527 95.7518 169.523 94.7472C168.518 93.7426 167.953 92.3808 167.95 90.96V44.36C167.953 42.9393 168.518 41.5775 169.523 40.5728C170.527 39.5682 171.889 39.0026 173.31 39H234.6C236.021 39.0026 237.382 39.5682 238.387 40.5728C239.392 41.5775 239.957 42.9393 239.96 44.36V90.96C239.957 92.3808 239.392 93.7426 238.387 94.7472C237.382 95.7518 236.021 96.3174 234.6 96.32ZM173.31 41C172.42 41.0026 171.567 41.3575 170.937 41.987C170.307 42.6166 169.953 43.4697 169.95 44.36V90.96C169.953 91.8503 170.307 92.7034 170.937 93.333C171.567 93.9625 172.42 94.3174 173.31 94.32H234.6C235.49 94.3174 236.343 93.9625 236.973 93.333C237.602 92.7034 237.957 91.8503 237.96 90.96V44.36C237.957 43.4697 237.602 42.6166 236.973 41.987C236.343 41.3575 235.49 41.0026 234.6 41H173.31Z" fill="#052C2D"/>
<path d="M238.94 53.6401H168.94C168.675 53.6401 168.42 53.5348 168.233 53.3472C168.045 53.1597 167.94 52.9054 167.94 52.6401C167.94 52.3749 168.045 52.1206 168.233 51.933C168.42 51.7455 168.675 51.6401 168.94 51.6401H238.94C239.205 51.6401 239.46 51.7455 239.647 51.933C239.835 52.1206 239.94 52.3749 239.94 52.6401C239.94 52.9054 239.835 53.1597 239.647 53.3472C239.46 53.5348 239.205 53.6401 238.94 53.6401Z" fill="#052C2D"/>
<path d="M175.65 48.1601C176.76 48.1601 177.66 47.2602 177.66 46.1501C177.66 45.04 176.76 44.1401 175.65 44.1401C174.54 44.1401 173.64 45.04 173.64 46.1501C173.64 47.2602 174.54 48.1601 175.65 48.1601Z" fill="#052C2D"/>
<path d="M181.97 48.1601C183.08 48.1601 183.98 47.2602 183.98 46.1501C183.98 45.04 183.08 44.1401 181.97 44.1401C180.86 44.1401 179.96 45.04 179.96 46.1501C179.96 47.2602 180.86 48.1601 181.97 48.1601Z" fill="#052C2D"/>
<path d="M188.28 48.1601C189.39 48.1601 190.29 47.2602 190.29 46.1501C190.29 45.04 189.39 44.1401 188.28 44.1401C187.17 44.1401 186.27 45.04 186.27 46.1501C186.27 47.2602 187.17 48.1601 188.28 48.1601Z" fill="#052C2D"/>
<path d="M195.33 82.1002C195.099 82.1036 194.874 82.0217 194.7 81.8702L185.28 74.0702C185.167 73.9764 185.076 73.8587 185.013 73.7256C184.95 73.5925 184.918 73.4473 184.918 73.3002C184.918 73.1531 184.95 73.0079 185.013 72.8748C185.076 72.7417 185.167 72.624 185.28 72.5302L194.7 64.7202C194.906 64.5708 195.161 64.5056 195.413 64.5378C195.666 64.57 195.896 64.6973 196.058 64.8936C196.22 65.0899 196.301 65.3405 196.285 65.5944C196.268 65.8483 196.156 66.0864 195.97 66.2602L187.49 73.2602L195.97 80.2602C196.071 80.3441 196.155 80.4472 196.216 80.5636C196.278 80.6799 196.315 80.8072 196.327 80.9382C196.34 81.0692 196.326 81.2013 196.287 81.3269C196.248 81.4525 196.184 81.5691 196.1 81.6702C196.013 81.796 195.898 81.9001 195.765 81.9747C195.631 82.0492 195.483 82.0921 195.33 82.1002Z" fill="#052C2D"/>
<path d="M212.6 82.0998C212.453 82.1001 212.308 82.068 212.175 82.0057C212.042 81.9435 211.924 81.8527 211.83 81.7398C211.746 81.6388 211.682 81.5221 211.643 81.3965C211.604 81.2709 211.59 81.1389 211.602 81.0079C211.614 80.8769 211.652 80.7496 211.714 80.6332C211.775 80.5169 211.859 80.4138 211.96 80.3298L220.44 73.3298L211.96 66.3298C211.859 66.2458 211.775 66.1427 211.714 66.0263C211.653 65.91 211.615 65.7827 211.603 65.6518C211.591 65.5208 211.605 65.3888 211.644 65.2632C211.683 65.1376 211.746 65.021 211.83 64.9198C211.914 64.8187 212.017 64.7352 212.133 64.6739C212.25 64.6126 212.377 64.5749 212.508 64.5628C212.639 64.5508 212.771 64.5646 212.897 64.6035C213.022 64.6425 213.139 64.7058 213.24 64.7898L222.6 72.5298C222.713 72.6237 222.804 72.7413 222.867 72.8744C222.929 73.0075 222.962 73.1528 222.962 73.2998C222.962 73.4469 222.929 73.5922 222.867 73.7253C222.804 73.8584 222.713 73.976 222.6 74.0698L213.2 81.9098C213.026 82.0361 212.815 82.1027 212.6 82.0998Z" fill="#052C2D"/>
<path d="M198.89 86.7501C198.753 86.7477 198.617 86.7206 198.49 86.6701C198.37 86.6169 198.261 86.5406 198.17 86.4455C198.08 86.3504 198.009 86.2384 197.961 86.1158C197.914 85.9932 197.891 85.8625 197.894 85.7311C197.898 85.5997 197.927 85.4702 197.98 85.3501L208.98 60.4401C209.033 60.3198 209.109 60.2113 209.204 60.1206C209.3 60.0299 209.412 59.9588 209.534 59.9114C209.657 59.8641 209.787 59.8413 209.919 59.8445C210.05 59.8477 210.18 59.8768 210.3 59.9301C210.42 59.9832 210.529 60.0595 210.619 60.1546C210.71 60.2497 210.781 60.3617 210.829 60.4843C210.876 60.6069 210.899 60.7377 210.895 60.8691C210.892 61.0004 210.863 61.1299 210.81 61.2501L199.81 86.1601C199.73 86.3371 199.601 86.4871 199.438 86.5919C199.274 86.6966 199.084 86.7516 198.89 86.7501Z" fill="#052C2D"/>
<path d="M79.7501 155.13H33.1901C31.0749 155.13 29.3601 156.845 29.3601 158.96V180.29C29.3601 182.405 31.0749 184.12 33.1901 184.12H79.7501C81.8653 184.12 83.5801 182.405 83.5801 180.29V158.96C83.5801 156.845 81.8653 155.13 79.7501 155.13Z" fill="white"/>
<path d="M79.7501 185.13H33.1901C31.9099 185.127 30.6829 184.618 29.7777 183.712C28.8725 182.807 28.3627 181.58 28.3601 180.3V158.96C28.3627 157.68 28.8725 156.453 29.7777 155.547C30.6829 154.642 31.9099 154.133 33.1901 154.13H79.7501C80.3844 154.13 81.0125 154.255 81.5985 154.498C82.1845 154.74 82.7169 155.096 83.1654 155.545C83.6139 155.993 83.9697 156.526 84.2124 157.112C84.4552 157.698 84.5801 158.326 84.5801 158.96V180.3C84.5801 181.581 84.0712 182.809 83.1654 183.715C82.2596 184.621 81.0311 185.13 79.7501 185.13ZM33.1901 156.13C32.4395 156.13 31.7197 156.428 31.189 156.959C30.6583 157.489 30.3601 158.209 30.3601 158.96V180.3C30.3601 181.05 30.6583 181.77 31.189 182.301C31.7197 182.832 32.4395 183.13 33.1901 183.13H79.7501C80.1217 183.13 80.4898 183.057 80.8331 182.914C81.1765 182.772 81.4884 182.564 81.7512 182.301C82.014 182.038 82.2225 181.726 82.3647 181.383C82.5069 181.04 82.5801 180.672 82.5801 180.3V158.96C82.5801 158.588 82.5069 158.22 82.3647 157.877C82.2225 157.534 82.014 157.222 81.7512 156.959C81.4884 156.696 81.1765 156.488 80.8331 156.345C80.4898 156.203 80.1217 156.13 79.7501 156.13H33.1901Z" fill="#052C2D"/>
<path d="M40.45 165.22H41.96V168.6H45.96V165.22H47.47V173.72H45.96V169.97H41.96V173.72H40.45V165.22Z" fill="#052C2D"/>
<path d="M51.08 166.59H48.47V165.22H55.19V166.59H52.6V173.72H51.09L51.08 166.59Z" fill="#052C2D"/>
<path d="M56.26 165.22H58.6L60.87 171.17L63.16 165.22H65.44V173.72H64V166.66L61.42 173.72H60.3L57.73 166.66V173.72H56.29L56.26 165.22Z" fill="#052C2D"/>
<path d="M67.3401 165.22H68.8501V172.35H72.4601V173.72H67.3401V165.22Z" fill="#052C2D"/>
</svg>
