<svg width="64" height="64" viewBox="0 0 64 64" fill="none" xmlns="http://www.w3.org/2000/svg">
<g clip-path="url(#clip0_294_2645)">
<path d="M12.8 51.2001V44.8001H6.39995V51.2001H3.19995V35.2001H6.39995V41.6001H12.8V35.2001H16V51.2001H12.8ZM22.4 51.2001V38.4001H17.9199V35.2001H29.76V38.4001H25.5999V51.2001H22.4ZM32 51.2001V35.2001H35.1999L39.6799 46.0801H40L44.7999 35.2001H47.9999V51.2001H44.7999V41.2801H44.4799L40.9599 49.2801H39.0399L35.52 41.2801H35.1999V51.2001H32ZM60.7999 51.2001H51.1999V35.2001H54.3999V48.0001H60.7999V51.2001ZM30.0799 13.4401L22.7199 20.8001L30.0799 28.1601L28.16 32.0001L16.96 20.8001L28.16 9.6001L30.0799 13.4401ZM33.92 28.1601L41.2799 20.8001L33.92 13.4401L35.8399 9.6001L47.0399 20.8001L35.8399 32.0001L33.92 28.1601Z" fill="#144C4E"/>
</g>
<defs>
<clipPath id="clip0_294_2645">
<rect width="64" height="64" fill="white"/>
</clipPath>
</defs>
</svg>
