<svg width="24" height="24" viewBox="0 0 24 24" fill="none" xmlns="http://www.w3.org/2000/svg">
<path d="M22.5 3.49219L21.54 3.77344L4.359 9.00019H1.5V15.0002H4.35975L5.83575 15.4457L5.81325 15.5154V15.5394C5.33175 17.1234 6.2235 18.8844 7.87575 19.3824C7.88325 19.3847 7.89225 19.3802 7.89825 19.3824C9.4905 19.8662 11.253 18.9849 11.7427 17.3199L11.7653 17.2494L21.54 20.2269L22.5 20.5074V3.49219ZM21 5.50819V18.4922L4.71 13.5227L4.61775 13.5002H3V10.5002H4.617L4.71075 10.4777L21 5.50819ZM7.26525 15.8904L10.3358 16.8054L10.3133 16.8752V16.8977C10.0553 17.7752 9.12375 18.2042 8.32125 17.9529C7.44375 17.6957 6.99225 16.7874 7.24275 15.9842V15.9617L7.26525 15.8904Z" fill="#DAFF99"/>
</svg>
