<svg width="24" height="24" viewBox="0 0 24 24" fill="none" xmlns="http://www.w3.org/2000/svg">
<path d="M7.44601 16.5538L4.82301 15.1298L5.41201 14.5408L7.73801 14.8908L11.888 10.7408L4.53101 6.7608L5.27701 5.9948L14.327 8.2908L17.27 5.3398C17.4633 5.14647 17.6927 5.0498 17.958 5.0498C18.2233 5.0498 18.4523 5.14647 18.645 5.3398C18.8377 5.53314 18.9343 5.7658 18.935 6.0378C18.9357 6.3098 18.839 6.54214 18.645 6.7348L15.725 9.6918L18.003 18.7228L17.257 19.4878L13.257 12.1308L9.14501 16.2418L9.47501 18.5878L8.86801 19.1958L7.44601 16.5538Z" fill="#DAFF99"/>
</svg>
