<svg width="251" height="250" viewBox="0 0 251 250" fill="none" xmlns="http://www.w3.org/2000/svg">
<path d="M214.043 38.7408C214.043 38.7408 211.713 34.4608 208.043 28.5508C208.043 28.5508 196.213 37.3808 196.313 36.8908C196.413 36.4008 214.043 38.7408 214.043 38.7408Z" fill="#231F20"/>
<path d="M214.044 39.2409H213.973C207.753 38.4109 197.583 37.1809 196.493 37.3309C196.193 37.4509 196.114 37.3909 196.014 37.3309C195.925 37.2746 195.856 37.1928 195.815 37.0965C195.774 37.0001 195.763 36.8936 195.783 36.7909C195.783 36.6509 195.844 36.5109 196.174 36.4309C196.864 36.1609 203.613 31.2109 207.713 28.1509C207.769 28.1093 207.832 28.0798 207.899 28.0643C207.966 28.0488 208.036 28.0477 208.104 28.0609C208.171 28.072 208.235 28.0973 208.292 28.1353C208.349 28.1732 208.397 28.2229 208.433 28.2809C212.113 34.1409 214.433 38.4609 214.493 38.5009C214.542 38.5789 214.568 38.669 214.568 38.7609C214.568 38.8529 214.542 38.943 214.493 39.0209C214.444 39.0939 214.377 39.1527 214.298 39.1914C214.219 39.23 214.131 39.2471 214.044 39.2409ZM198.044 36.4009C200.224 36.5209 204.533 36.9909 213.093 38.1209C212.263 36.6309 210.394 33.3609 207.834 29.2809C202.494 33.2809 199.634 35.3509 198.074 36.4009H198.044Z" fill="#231F20"/>
<path d="M57.4234 217.091L51.5234 207.251L59.6834 199.871L57.4234 217.091Z" fill="#231F20"/>
<path d="M57.4234 217.591C57.3373 217.59 57.2527 217.568 57.1775 217.526C57.1023 217.484 57.039 217.424 56.9934 217.351L51.0934 207.511C51.0341 207.411 51.0116 207.293 51.0299 207.178C51.0481 207.063 51.106 206.958 51.1934 206.881L59.3534 199.501C59.4297 199.432 59.5253 199.388 59.6273 199.376C59.7293 199.363 59.8327 199.382 59.9234 199.431C60.0128 199.48 60.0853 199.555 60.1317 199.646C60.178 199.737 60.196 199.84 60.1834 199.941L57.9234 217.131C57.9106 217.235 57.865 217.333 57.7932 217.411C57.7213 217.488 57.6269 217.54 57.5234 217.561L57.4234 217.591ZM52.1634 207.351L57.1134 215.601L59.0134 201.151L52.1634 207.351Z" fill="#231F20"/>
<path d="M61.2536 219.131L156.254 232.661C158.201 232.914 160.176 232.467 161.825 231.399C163.474 230.331 164.689 228.712 165.254 226.831L214.404 42.9307C215.404 39.1207 212.974 35.7706 208.944 35.4406L112.084 27.6306C110.168 27.5378 108.276 28.0904 106.711 29.2C105.147 30.3095 104 31.9119 103.454 33.7506L56.2836 211.571C56.0388 212.397 55.9772 213.266 56.1032 214.118C56.2291 214.971 56.5395 215.785 57.0128 216.505C57.486 217.225 58.1107 217.833 58.8431 218.286C59.5756 218.74 60.3982 219.028 61.2536 219.131Z" fill="#231F20"/>
<path d="M157.303 233.271C156.919 233.269 156.535 233.242 156.153 233.191L61.1534 219.651C60.2346 219.538 59.351 219.229 58.5624 218.744C57.7738 218.259 57.0989 217.61 56.5834 216.841C56.0709 216.051 55.7335 215.16 55.5938 214.229C55.4541 213.297 55.5153 212.347 55.7734 211.441L102.943 33.651C103.52 31.6978 104.735 29.9943 106.394 28.8125C108.052 27.6306 110.059 27.0386 112.093 27.131L208.953 34.941C209.944 34.9929 210.91 35.2638 211.784 35.7342C212.657 36.2045 213.415 36.8625 214.003 37.661C214.537 38.4416 214.89 39.3308 215.039 40.2645C215.188 41.1982 215.128 42.1532 214.863 43.061L165.693 226.991C165.152 228.798 164.044 230.384 162.534 231.514C161.023 232.645 159.19 233.26 157.303 233.271ZM61.3034 218.661L156.303 232.201C158.123 232.427 159.963 232.002 161.499 231.001C163.035 230 164.166 228.487 164.693 226.731L213.893 42.841C214.123 42.0744 214.178 41.2663 214.056 40.4756C213.933 39.6849 213.635 38.9317 213.183 38.271C212.682 37.5906 212.035 37.0309 211.289 36.633C210.543 36.235 209.718 36.0088 208.873 35.971L112.013 28.131C110.213 28.0364 108.433 28.5528 106.963 29.5965C105.493 30.6402 104.418 32.15 103.913 33.881L56.7734 211.701C56.55 212.469 56.4942 213.277 56.6098 214.069C56.7254 214.861 57.0097 215.618 57.4434 216.291C57.8838 216.94 58.4579 217.487 59.127 217.896C59.7962 218.304 60.5451 218.565 61.3234 218.661H61.3034Z" fill="#231F20"/>
<path d="M55.0634 209.011L150.063 222.541C152.012 222.798 153.988 222.353 155.638 221.285C157.288 220.216 158.502 218.594 159.063 216.711L208.193 32.8105C209.193 29.0005 206.763 25.6505 202.733 25.3205L105.873 17.5105C103.958 17.4177 102.066 17.9703 100.501 19.0799C98.9367 20.1894 97.7895 21.7918 97.2434 23.6305L50.1034 201.421C49.8535 202.248 49.7876 203.119 49.9105 203.975C50.0334 204.83 50.342 205.648 50.8147 206.371C51.2874 207.095 51.9126 207.706 52.6466 208.162C53.3806 208.618 54.2055 208.907 55.0634 209.011Z" fill="white"/>
<path d="M151.114 223.131C150.732 223.129 150.351 223.102 149.974 223.051L54.9735 209.511C54.0562 209.398 53.1739 209.088 52.387 208.603C51.6001 208.118 50.927 207.469 50.4135 206.701C49.8986 205.912 49.5598 205.021 49.42 204.089C49.2802 203.157 49.3428 202.206 49.6035 201.301L96.7635 23.5107C97.3395 21.5585 98.5546 19.8564 100.214 18.6777C101.873 17.4989 103.881 16.9119 105.914 17.0107L202.774 24.8207C203.756 24.8772 204.714 25.1503 205.578 25.6206C206.443 26.0909 207.192 26.7466 207.774 27.5407C208.311 28.3193 208.668 29.2086 208.817 30.1431C208.966 31.0776 208.903 32.0336 208.634 32.9407L159.484 216.841C158.942 218.645 157.837 220.228 156.331 221.36C154.825 222.492 152.997 223.112 151.114 223.131ZM105.284 17.9907C103.57 18.0217 101.91 18.5976 100.545 19.635C99.1807 20.6725 98.1818 22.1175 97.6935 23.7607L50.5835 201.551C50.3642 202.32 50.3114 203.128 50.4287 203.919C50.5459 204.711 50.8305 205.468 51.2635 206.141C51.7019 206.789 52.2741 207.336 52.9417 207.745C53.6092 208.154 54.3566 208.415 55.1335 208.511L150.134 222.051C151.96 222.285 153.811 221.865 155.356 220.863C156.902 219.861 158.042 218.344 158.574 216.581L207.694 32.6907C207.92 31.9239 207.974 31.1163 207.852 30.326C207.729 29.5358 207.432 28.7826 206.984 28.1207C206.481 27.4419 205.833 26.8834 205.087 26.4856C204.342 26.0878 203.518 25.8607 202.674 25.8207L105.814 18.0107L105.284 17.9907Z" fill="#231F20"/>
<path d="M94.3235 207.941L112.863 210.551C114.039 210.693 115.228 210.414 116.217 209.762C117.206 209.11 117.931 208.128 118.263 206.991L120.113 200.081C120.268 199.556 120.304 199.004 120.22 198.464C120.137 197.923 119.935 197.408 119.629 196.954C119.324 196.501 118.922 196.12 118.453 195.839C117.983 195.559 117.458 195.385 116.913 195.331L98.3535 192.811C97.1855 192.681 96.0092 192.967 95.0308 193.618C94.0525 194.269 93.3347 195.243 93.0035 196.371L91.1835 203.221C91.0294 203.739 90.9911 204.285 91.0714 204.82C91.1517 205.355 91.3487 205.866 91.6483 206.316C91.9478 206.767 92.3428 207.146 92.8051 207.426C93.2674 207.707 93.7857 207.883 94.3235 207.941Z" fill="white"/>
<path d="M113.484 211.131C113.253 211.134 113.022 211.117 112.794 211.081L94.2536 208.481C93.6453 208.412 93.0593 208.211 92.5369 207.892C92.0144 207.573 91.5679 207.144 91.2288 206.634C90.8896 206.124 90.666 205.547 90.5736 204.942C90.4811 204.336 90.5221 203.718 90.6936 203.131L92.5136 196.281C92.8755 195.038 93.6651 193.963 94.7429 193.245C95.8206 192.528 97.1172 192.215 98.4036 192.361L116.974 194.871C117.591 194.944 118.185 195.148 118.717 195.471C119.248 195.794 119.704 196.227 120.054 196.741C120.387 197.254 120.607 197.833 120.699 198.438C120.79 199.044 120.751 199.662 120.584 200.251L118.754 207.131C118.421 208.275 117.729 209.281 116.78 210.002C115.831 210.722 114.675 211.118 113.484 211.131ZM97.7436 193.311C96.7837 193.321 95.8525 193.64 95.0874 194.22C94.3222 194.799 93.7635 195.609 93.4936 196.531L91.6936 203.351C91.5605 203.801 91.528 204.275 91.5983 204.74C91.6686 205.204 91.8399 205.648 92.1003 206.039C92.3606 206.43 92.7036 206.759 93.1051 207.003C93.5065 207.247 93.9566 207.4 94.4236 207.451L112.954 210.051C114.01 210.182 115.079 209.933 115.97 209.348C116.86 208.764 117.513 207.882 117.814 206.861L119.654 199.951C119.786 199.498 119.819 199.023 119.75 198.557C119.681 198.091 119.511 197.645 119.254 197.251C118.983 196.856 118.63 196.523 118.219 196.277C117.809 196.03 117.35 195.874 116.874 195.821L98.3136 193.311C98.1251 193.281 97.9344 193.267 97.7436 193.271V193.311Z" fill="#E6E7E8"/>
<path d="M169.473 32.5806L141.143 30.2106C141.078 30.2053 141.014 30.1872 140.955 30.1572C140.897 30.1272 140.844 30.086 140.802 30.0358C140.759 29.9857 140.727 29.9276 140.706 29.865C140.686 29.8023 140.678 29.7362 140.683 29.6706C140.689 29.6049 140.707 29.5409 140.737 29.4823C140.767 29.4236 140.808 29.3715 140.858 29.3287C140.908 29.286 140.966 29.2536 141.029 29.2333C141.092 29.2131 141.158 29.2053 141.223 29.2106L169.553 31.5706C169.686 31.5706 169.813 31.6233 169.907 31.717C170.001 31.8108 170.053 31.938 170.053 32.0706C170.053 32.2032 170.001 32.3304 169.907 32.4241C169.813 32.5179 169.686 32.5706 169.553 32.5706L169.473 32.5806Z" fill="#D1D3D4"/>
<path d="M137.214 29.8809H137.164L133.414 29.5709C133.281 29.5603 133.158 29.4975 133.072 29.3962C132.985 29.2949 132.943 29.1635 132.954 29.0309C132.964 28.8983 133.027 28.7754 133.128 28.6891C133.23 28.6028 133.361 28.5603 133.494 28.5709L137.254 28.8909C137.386 28.8909 137.513 28.9436 137.607 29.0374C137.701 29.1312 137.754 29.2583 137.754 29.3909C137.754 29.5235 137.701 29.6507 137.607 29.7445C137.513 29.8383 137.386 29.8909 137.254 29.8909L137.214 29.8809Z" fill="#D1D3D4"/>
<path d="M198.023 44.9308L159.933 192.021L61.0334 180.261L99.3535 36.3208L198.023 44.9308Z" fill="white"/>
<path d="M159.933 192.521H159.883L60.9734 180.751C60.903 180.744 60.835 180.722 60.7744 180.686C60.7138 180.649 60.6622 180.6 60.6234 180.541C60.583 180.481 60.5558 180.414 60.5438 180.343C60.5317 180.272 60.535 180.2 60.5534 180.131L98.8734 36.1905C98.9037 36.0761 98.9735 35.9761 99.0706 35.9084C99.1676 35.8406 99.2856 35.8095 99.4034 35.8205L198.063 44.4305C198.136 44.4387 198.206 44.4615 198.27 44.4976C198.334 44.5337 198.389 44.5823 198.433 44.6405C198.474 44.7016 198.501 44.7707 198.513 44.843C198.525 44.9154 198.522 44.9896 198.503 45.0605L160.423 192.131C160.398 192.242 160.336 192.341 160.247 192.412C160.158 192.483 160.047 192.521 159.933 192.521ZM61.6934 179.831L159.593 191.481L197.393 45.3805L99.6934 36.8605L61.6934 179.831Z" fill="#231F20"/>
<path d="M170.153 61.8608L121.583 57.3308C120.986 57.294 120.405 57.1237 119.883 56.8325C119.36 56.5413 118.91 56.1366 118.564 55.6482C118.219 55.1598 117.987 54.6002 117.887 54.0105C117.786 53.4208 117.819 52.8161 117.983 52.2408C118.368 50.9567 119.176 49.841 120.277 49.0762C121.378 48.3114 122.706 47.9429 124.043 48.0308L172.613 52.4208C173.23 52.4424 173.834 52.6042 174.378 52.894C174.923 53.1838 175.395 53.594 175.757 54.0934C176.12 54.5928 176.364 55.1682 176.47 55.776C176.577 56.3837 176.544 57.0078 176.373 57.6008C175.98 58.915 175.148 60.0546 174.016 60.8297C172.884 61.6049 171.521 61.9688 170.153 61.8608Z" fill="#E6E7E8"/>
<path d="M189.603 64.1806L179.223 63.1806C179.152 63.1742 179.082 63.1521 179.02 63.1158C178.958 63.0795 178.904 63.0299 178.863 62.9706C178.821 62.9121 178.792 62.8451 178.779 62.7744C178.765 62.7036 178.766 62.6307 178.783 62.5606L181.073 53.7706C181.104 53.6562 181.174 53.5562 181.271 53.4885C181.368 53.4207 181.486 53.3896 181.603 53.4006L191.973 54.3406C192.047 54.3469 192.118 54.369 192.181 54.4052C192.245 54.4414 192.3 54.491 192.343 54.5506C192.384 54.6099 192.411 54.6773 192.423 54.748C192.435 54.8187 192.432 54.8913 192.413 54.9606L190.133 63.7806C190.109 63.9006 190.042 64.0076 189.944 64.0813C189.847 64.155 189.725 64.1904 189.603 64.1806ZM179.863 62.2706L189.233 63.1406L191.233 55.3106L181.863 54.4606L179.863 62.2706Z" fill="#D1D3D4"/>
<path d="M186.934 60.3809C186.846 60.3804 186.761 60.3571 186.685 60.3132C186.61 60.2693 186.547 60.2065 186.504 60.1309L184.904 57.4709C182.904 58.5709 180.744 59.7609 180.404 60.0409C180.342 60.1184 180.259 60.1764 180.165 60.2083C180.071 60.2402 179.97 60.2446 179.874 60.2209C179.747 60.1858 179.639 60.1021 179.573 59.9879C179.508 59.8737 179.49 59.7382 179.524 59.6109C179.584 59.3609 179.644 59.1609 184.854 56.3609C184.967 56.3023 185.099 56.2894 185.221 56.3247C185.344 56.36 185.449 56.441 185.514 56.5509L187.364 59.6209C187.431 59.7355 187.45 59.8716 187.418 60.0004C187.387 60.1293 187.306 60.2406 187.194 60.3109C187.113 60.354 187.024 60.378 186.934 60.3809Z" fill="#D1D3D4"/>
<path d="M190.753 59.7707C190.681 59.7728 190.61 59.7585 190.544 59.7291C190.478 59.6997 190.42 59.6558 190.373 59.6007L188.793 57.8107L186.603 59.2807C186.493 59.355 186.358 59.3825 186.228 59.3572C186.098 59.3319 185.983 59.2558 185.908 59.1457C185.834 59.0357 185.807 58.9006 185.832 58.7703C185.857 58.64 185.933 58.525 186.043 58.4507L188.593 56.7307C188.696 56.6641 188.819 56.6366 188.94 56.6531C189.061 56.6696 189.172 56.7291 189.253 56.8207L191.123 58.9407C191.216 59.0359 191.267 59.1632 191.267 59.2957C191.267 59.4283 191.216 59.5556 191.123 59.6507C191.019 59.7353 190.887 59.7781 190.753 59.7707Z" fill="#D1D3D4"/>
<path d="M109.584 81.7906C109.106 83.4062 108.089 84.8095 106.703 85.7666C105.316 86.7237 103.644 87.1768 101.964 87.0506C101.206 87.006 100.468 86.7895 99.806 86.4173C99.1442 86.0451 98.5758 85.5271 98.144 84.9026C97.7123 84.2781 97.4284 83.5634 97.314 82.8128C97.1995 82.0622 97.2575 81.2954 97.4836 80.5706C97.9601 78.9603 98.9723 77.561 100.353 76.6045C101.733 75.6479 103.398 75.1914 105.074 75.3106C105.834 75.3508 106.575 75.5642 107.241 75.9345C107.906 76.3048 108.479 76.8223 108.914 77.4474C109.349 78.0725 109.635 78.7887 109.751 79.5414C109.867 80.2941 109.81 81.0634 109.584 81.7906Z" fill="#DAFF99"/>
<path d="M96.2236 132.231C95.7562 133.848 94.7398 135.252 93.349 136.202C91.9582 137.151 90.2802 137.585 88.6036 137.431C87.8414 137.361 87.1043 137.123 86.4458 136.733C85.7873 136.343 85.224 135.811 84.7968 135.176C84.3696 134.541 84.0894 133.819 83.9764 133.062C83.8634 132.305 83.9205 131.533 84.1436 130.801C84.6086 129.186 85.6216 127.783 87.0086 126.834C88.3956 125.885 90.0699 125.449 91.7436 125.601C92.5082 125.666 93.2487 125.901 93.9106 126.289C94.5725 126.677 95.1391 127.209 95.5687 127.845C95.9984 128.481 96.2802 129.204 96.3935 129.963C96.5068 130.722 96.4488 131.497 96.2236 132.231Z" fill="#E6E7E8"/>
<path d="M90.3336 154.511C89.8705 156.131 88.8525 157.536 87.4576 158.481C86.0627 159.427 84.3798 159.851 82.7036 159.681C81.9383 159.605 81.1994 159.36 80.5402 158.964C79.8809 158.568 79.3177 158.03 78.8912 157.391C78.4646 156.751 78.1852 156.024 78.0732 155.263C77.9613 154.502 78.0194 153.726 78.2436 152.991C78.7058 151.376 79.7193 149.975 81.1078 149.03C82.4964 148.085 84.1721 147.657 85.8436 147.821C86.6107 147.894 87.3519 148.137 88.0139 148.532C88.6758 148.927 89.2419 149.463 89.6713 150.103C90.1008 150.743 90.383 151.47 90.4975 152.233C90.612 152.995 90.556 153.773 90.3336 154.511Z" fill="#E6E7E8"/>
<path d="M156.794 83.8306L115.604 79.7106C115.538 79.7044 115.474 79.6852 115.416 79.6541C115.357 79.623 115.306 79.5806 115.264 79.5295C115.222 79.4783 115.191 79.4194 115.172 79.3561C115.153 79.2928 115.147 79.2263 115.154 79.1606C115.169 79.0296 115.235 78.9098 115.338 78.8273C115.441 78.7449 115.572 78.7066 115.704 78.7206L156.894 82.8306C157.026 82.8373 157.151 82.8963 157.24 82.9948C157.329 83.0932 157.375 83.223 157.369 83.3556C157.362 83.4882 157.303 83.6128 157.204 83.7019C157.106 83.7909 156.976 83.8373 156.844 83.8306H156.794Z" fill="#D1D3D4"/>
<path d="M129.243 87.4508H129.183L113.923 85.9008C113.858 85.8945 113.794 85.8753 113.735 85.8442C113.677 85.8131 113.626 85.7708 113.584 85.7196C113.542 85.6685 113.511 85.6096 113.492 85.5462C113.473 85.4829 113.467 85.4165 113.473 85.3508C113.489 85.219 113.554 85.0982 113.657 85.0142C113.76 84.9302 113.891 84.8895 114.023 84.9008L129.293 86.4608C129.426 86.4608 129.553 86.5135 129.647 86.6072C129.741 86.701 129.793 86.8282 129.793 86.9608C129.793 87.0934 129.741 87.2206 129.647 87.3143C129.553 87.4081 129.426 87.4608 129.293 87.4608L129.243 87.4508Z" fill="#D1D3D4"/>
<path d="M171.694 100.021L97.8336 92.2809C97.7678 92.2747 97.7039 92.2555 97.6456 92.2244C97.5873 92.1933 97.5357 92.1509 97.4939 92.0998C97.452 92.0486 97.4207 91.9897 97.4018 91.9264C97.3829 91.8631 97.3767 91.7966 97.3836 91.7309C97.3987 91.5999 97.4649 91.4801 97.568 91.3976C97.671 91.3152 97.8024 91.2769 97.9336 91.2909L171.794 99.0309C171.925 99.046 172.044 99.1123 172.127 99.2153C172.209 99.3183 172.248 99.4497 172.234 99.5809C172.227 99.6454 172.208 99.708 172.178 99.7651C172.147 99.8222 172.106 99.8727 172.055 99.9136C172.005 99.9545 171.947 99.9851 171.885 100.003C171.823 100.022 171.758 100.028 171.694 100.021Z" fill="#D1D3D4"/>
<path d="M163.434 106.731H163.384L95.8635 99.4906C95.7324 99.4755 95.6126 99.4093 95.5302 99.3062C95.4478 99.2032 95.4094 99.0718 95.4235 98.9406C95.4386 98.8088 95.5045 98.6881 95.6072 98.604C95.7099 98.52 95.8413 98.4793 95.9735 98.4906L163.483 105.741C163.616 105.741 163.743 105.793 163.837 105.887C163.931 105.981 163.983 106.108 163.983 106.241C163.983 106.373 163.931 106.5 163.837 106.594C163.743 106.688 163.616 106.741 163.483 106.741L163.434 106.731Z" fill="#D1D3D4"/>
<path d="M153.153 174.241C152.846 174.24 152.538 174.22 152.233 174.181L76.1034 164.261C75.2864 164.172 74.4984 163.907 73.7939 163.484C73.0894 163.061 72.4853 162.49 72.0234 161.811C71.564 161.112 71.2618 160.322 71.1375 159.495C71.0131 158.668 71.0698 157.824 71.3034 157.021L93.2234 74.6205C93.7279 72.9234 94.7947 71.4484 96.2486 70.438C97.7025 69.4275 99.4569 68.9418 101.223 69.0606L177.453 76.4705C178.322 76.5317 179.166 76.7828 179.926 77.2062C180.686 77.6295 181.344 78.2148 181.853 78.9206C182.322 79.6039 182.634 80.3816 182.769 81.1989C182.904 82.0162 182.857 82.8531 182.633 83.6505L160.633 168.651C160.151 170.261 159.163 171.674 157.816 172.681C156.47 173.687 154.835 174.234 153.153 174.241ZM152.363 173.191C153.954 173.375 155.559 172.99 156.894 172.104C158.228 171.218 159.206 169.888 159.653 168.351L181.653 83.4005C181.841 82.7425 181.882 82.0511 181.773 81.3755C181.665 80.6998 181.409 80.0563 181.023 79.4906C180.592 78.9121 180.041 78.4339 179.407 78.0887C178.774 77.7435 178.073 77.5394 177.353 77.4906L101.113 70.0905C99.5812 69.9861 98.059 70.4066 96.7976 71.2827C95.5361 72.1587 94.6106 73.4383 94.1734 74.9105L72.2434 157.311C72.0469 157.98 71.9979 158.685 72.0997 159.375C72.2016 160.066 72.4519 160.726 72.8334 161.311C73.2177 161.867 73.7178 162.334 74.2995 162.679C74.8812 163.025 75.5307 163.24 76.2034 163.311L152.363 173.191Z" fill="#D1D3D4"/>
<path d="M174.003 115.481H173.943L85.5334 105.771C85.4024 105.756 85.2826 105.69 85.2001 105.587C85.1177 105.483 85.0794 105.352 85.0934 105.221C85.1086 105.089 85.1745 104.968 85.2772 104.884C85.3798 104.8 85.5112 104.76 85.6434 104.771L174.053 114.491C174.119 114.497 174.183 114.516 174.241 114.547C174.3 114.579 174.351 114.621 174.393 114.672C174.435 114.723 174.466 114.782 174.485 114.845C174.504 114.909 174.51 114.975 174.503 115.041C174.487 115.162 174.427 115.273 174.335 115.354C174.243 115.435 174.126 115.48 174.003 115.481Z" fill="#D1D3D4"/>
<path d="M170.443 129.231H170.383L81.9834 119.131C81.8508 119.116 81.7294 119.05 81.646 118.946C81.5625 118.842 81.5238 118.709 81.5384 118.576C81.553 118.443 81.6197 118.322 81.7238 118.239C81.8278 118.155 81.9608 118.116 82.0934 118.131L170.493 128.261C170.626 128.268 170.751 128.327 170.84 128.425C170.929 128.524 170.975 128.653 170.968 128.786C170.962 128.919 170.903 129.043 170.804 129.132C170.706 129.221 170.576 129.268 170.443 129.261V129.231Z" fill="#D1D3D4"/>
<path d="M93.2435 118.041H93.1935L91.8035 117.971C91.6669 117.962 91.5333 117.926 91.4112 117.864C91.2891 117.802 91.1809 117.716 91.0935 117.611C91.0128 117.501 90.9551 117.376 90.9242 117.244C90.8932 117.112 90.8896 116.974 90.9135 116.841L91.6836 112.991C91.7432 112.738 91.8882 112.513 92.094 112.355C92.2998 112.196 92.5539 112.114 92.8135 112.121L94.2035 112.181C94.3402 112.189 94.4738 112.225 94.5959 112.287C94.718 112.349 94.8262 112.435 94.9135 112.541C94.9943 112.65 95.0519 112.775 95.0829 112.907C95.1138 113.039 95.1175 113.177 95.0935 113.311L94.3236 117.161C94.271 117.408 94.1353 117.631 93.9388 117.791C93.7423 117.951 93.497 118.039 93.2435 118.041ZM92.7636 113.121C92.7636 113.121 92.6635 113.121 92.6635 113.191L91.9036 117.041H93.2435C93.266 117.044 93.2887 117.038 93.3072 117.025C93.3258 117.012 93.3387 116.993 93.3435 116.971L94.1135 113.111L92.7636 113.121Z" fill="#D1D3D4"/>
<path d="M100.924 118.421L95.0035 118.131C94.9312 118.126 94.8608 118.105 94.797 118.071C94.7332 118.036 94.6775 117.988 94.6335 117.931C94.5899 117.875 94.5592 117.81 94.5437 117.741C94.5281 117.672 94.5281 117.6 94.5435 117.531L95.3335 113.531C95.3559 113.436 95.4044 113.349 95.4735 113.281C96.0135 112.711 96.5935 112.001 97.1535 111.281C98.6936 109.391 99.6135 108.331 100.474 108.581C100.595 108.613 100.706 108.674 100.8 108.757C100.894 108.84 100.967 108.944 101.014 109.061C101.294 109.731 100.744 111.061 100.264 112.011C101.115 112.02 101.96 112.169 102.764 112.451C103.114 112.631 103.914 113.051 101.404 118.131C101.363 118.222 101.295 118.299 101.209 118.351C101.123 118.403 101.024 118.427 100.924 118.421ZM95.6035 117.131L100.604 117.381C101.292 116.084 101.806 114.702 102.134 113.271C101.238 113.065 100.322 112.961 99.4036 112.961C99.3159 112.962 99.2294 112.94 99.1536 112.896C99.0778 112.852 99.0155 112.788 98.9735 112.711C98.9295 112.637 98.9063 112.552 98.9063 112.466C98.9063 112.379 98.9295 112.295 98.9735 112.221C99.4736 111.397 99.8382 110.499 100.054 109.561C99.2406 110.249 98.5121 111.031 97.8835 111.891C97.3535 112.551 96.7935 113.231 96.2535 113.811L95.6035 117.131Z" fill="#D1D3D4"/>
<path d="M150.593 166.131L98.0434 159.421C97.5958 159.376 97.1635 159.233 96.7776 159.002C96.3918 158.771 96.0618 158.457 95.8114 158.084C95.561 157.71 95.3964 157.285 95.3293 156.841C95.2622 156.396 95.2943 155.942 95.4234 155.511C95.6951 154.568 96.2898 153.751 97.1033 153.202C97.9169 152.654 98.8975 152.409 99.8734 152.511L152.423 159.131C152.886 159.17 153.334 159.312 153.735 159.545C154.137 159.779 154.481 160.098 154.744 160.481C155.007 160.863 155.182 161.299 155.256 161.758C155.331 162.216 155.302 162.685 155.173 163.131C154.881 164.087 154.262 164.911 153.426 165.459C152.589 166.007 151.587 166.245 150.593 166.131Z" fill="#E6E7E8"/>
<path d="M139.814 145.431L106.084 141.341C105.237 141.272 104.416 141.015 103.681 140.588C102.946 140.162 102.316 139.576 101.836 138.874C101.357 138.173 101.041 137.373 100.91 136.533C100.78 135.693 100.839 134.835 101.084 134.021L101.704 131.681C102.223 129.898 103.346 128.352 104.88 127.306C106.414 126.261 108.265 125.782 110.114 125.951L143.854 129.861C144.715 129.927 145.551 130.184 146.301 130.613C147.051 131.042 147.696 131.633 148.189 132.342C148.682 133.052 149.011 133.862 149.152 134.715C149.293 135.567 149.242 136.44 149.004 137.271L148.384 139.651C147.854 141.463 146.707 143.032 145.142 144.088C143.577 145.144 141.692 145.619 139.814 145.431Z" fill="#DAFF99"/>
<path d="M151.964 161.01L152.224 160.01L148.224 159.5L147.974 160.5L147.184 160.4L146.184 164.15L151.794 164.86L152.794 161.1L151.964 161.01ZM149.294 163.3C149.141 163.292 148.993 163.249 148.859 163.175C148.726 163.101 148.612 162.997 148.525 162.871C148.438 162.746 148.381 162.602 148.358 162.451C148.336 162.3 148.348 162.146 148.394 162C148.488 161.685 148.689 161.412 148.963 161.229C149.237 161.047 149.566 160.966 149.894 161C150.047 161.008 150.197 161.051 150.331 161.126C150.465 161.201 150.58 161.306 150.667 161.433C150.755 161.56 150.811 161.705 150.833 161.857C150.855 162.009 150.841 162.164 150.794 162.31C150.701 162.626 150.5 162.899 150.225 163.081C149.95 163.262 149.62 163.34 149.294 163.3Z" fill="#231F20"/>
<path d="M109.783 145.821H109.693L100.693 144.721C100.562 144.703 100.442 144.635 100.359 144.53C100.277 144.426 100.239 144.293 100.253 144.161C100.273 144.03 100.342 143.912 100.446 143.83C100.55 143.748 100.682 143.709 100.813 143.721L109.813 144.821C109.946 144.829 110.07 144.889 110.158 144.988C110.246 145.088 110.291 145.218 110.283 145.351C110.275 145.483 110.215 145.607 110.116 145.696C110.016 145.784 109.886 145.829 109.753 145.821H109.783Z" fill="#D1D3D4"/>
<path d="M122.333 147.361H122.273L113.213 146.251C113.149 146.243 113.086 146.223 113.03 146.191C112.973 146.16 112.923 146.117 112.883 146.066C112.843 146.015 112.814 145.956 112.797 145.893C112.78 145.831 112.775 145.765 112.783 145.701C112.79 145.635 112.809 145.572 112.84 145.514C112.871 145.456 112.914 145.405 112.965 145.364C113.016 145.323 113.075 145.293 113.139 145.275C113.202 145.257 113.268 145.252 113.333 145.261L122.393 146.371C122.459 146.378 122.523 146.399 122.581 146.431C122.639 146.463 122.69 146.507 122.731 146.559C122.771 146.611 122.802 146.671 122.819 146.734C122.837 146.798 122.842 146.865 122.833 146.931C122.814 147.05 122.754 147.159 122.662 147.237C122.571 147.316 122.454 147.36 122.333 147.361Z" fill="#D1D3D4"/>
<path d="M142.864 135.981H142.804L109.554 132.061C109.422 132.043 109.302 131.975 109.22 131.87C109.137 131.765 109.099 131.633 109.114 131.501C109.131 131.369 109.199 131.249 109.304 131.167C109.409 131.084 109.541 131.046 109.674 131.061L142.924 134.981C143.056 134.989 143.18 135.049 143.268 135.148C143.356 135.248 143.401 135.378 143.394 135.511C143.386 135.643 143.325 135.767 143.226 135.855C143.126 135.943 142.996 135.989 142.864 135.981Z" fill="white"/>
<path d="M136.964 139.841H136.904L108.404 136.431C108.272 136.416 108.153 136.349 108.07 136.246C107.988 136.143 107.949 136.012 107.964 135.881C107.979 135.75 108.045 135.63 108.148 135.548C108.251 135.465 108.382 135.427 108.514 135.441L137.024 138.841C137.155 138.858 137.274 138.927 137.354 139.032C137.435 139.137 137.471 139.27 137.454 139.401C137.439 139.521 137.381 139.632 137.291 139.713C137.201 139.794 137.085 139.839 136.964 139.841Z" fill="white"/>
<path d="M129.173 122.971C128.893 122.971 128.673 122.681 127.663 121.051C127.313 121.051 126.973 121.051 126.663 121.051C125.835 120.998 125.027 120.769 124.294 120.38C123.561 119.99 122.92 119.448 122.413 118.791C122.131 118.4 121.938 117.952 121.85 117.478C121.762 117.004 121.78 116.517 121.903 116.051C122.523 113.711 125.533 112.151 128.753 112.511C129.586 112.56 130.398 112.786 131.136 113.174C131.874 113.562 132.521 114.103 133.033 114.761C133.316 115.151 133.508 115.6 133.596 116.073C133.684 116.547 133.666 117.035 133.543 117.501C133.289 118.25 132.857 118.928 132.284 119.474C131.711 120.021 131.014 120.421 130.253 120.641C129.933 121.841 129.773 122.471 129.753 122.571C129.734 122.673 129.686 122.767 129.616 122.843C129.545 122.92 129.454 122.974 129.353 123.001L129.173 122.971ZM127.933 120.041C128.019 120.04 128.103 120.061 128.178 120.101C128.253 120.141 128.317 120.199 128.363 120.271C128.633 120.721 128.843 121.061 129.013 121.271L129.343 120.031C129.365 119.951 129.407 119.878 129.465 119.818C129.522 119.759 129.594 119.715 129.673 119.691C130.324 119.537 130.927 119.226 131.429 118.785C131.931 118.344 132.317 117.786 132.553 117.161C132.638 116.834 132.65 116.492 132.587 116.16C132.525 115.829 132.391 115.515 132.193 115.241C131.758 114.707 131.217 114.269 130.605 113.954C129.992 113.639 129.321 113.454 128.633 113.411C125.913 113.111 123.333 114.411 122.853 116.221C122.769 116.547 122.757 116.889 122.819 117.221C122.882 117.553 123.016 117.867 123.213 118.141C123.645 118.673 124.183 119.11 124.792 119.423C125.401 119.736 126.069 119.919 126.753 119.961C127.139 119.996 127.528 119.996 127.913 119.961L127.933 120.041Z" fill="#D1D3D4"/>
<path d="M126.514 116.731C126.461 116.906 126.351 117.059 126.199 117.162C126.048 117.266 125.866 117.315 125.684 117.301C125.601 117.295 125.52 117.271 125.448 117.23C125.376 117.189 125.314 117.132 125.267 117.064C125.22 116.996 125.189 116.918 125.176 116.836C125.163 116.754 125.169 116.67 125.194 116.591C125.242 116.415 125.351 116.261 125.5 116.157C125.65 116.053 125.832 116.005 126.014 116.021C126.097 116.026 126.177 116.051 126.25 116.091C126.322 116.132 126.384 116.189 126.432 116.257C126.48 116.325 126.512 116.403 126.526 116.484C126.54 116.566 126.536 116.65 126.514 116.731Z" fill="#D1D3D4"/>
<path d="M128.543 116.96C128.495 117.138 128.385 117.293 128.233 117.397C128.081 117.502 127.897 117.549 127.713 117.53C127.63 117.524 127.55 117.498 127.477 117.456C127.405 117.414 127.343 117.356 127.297 117.287C127.25 117.218 127.219 117.14 127.206 117.057C127.193 116.975 127.199 116.89 127.223 116.81C127.276 116.636 127.387 116.484 127.538 116.382C127.69 116.28 127.872 116.234 128.053 116.25C128.136 116.256 128.217 116.28 128.289 116.321C128.361 116.362 128.423 116.419 128.47 116.487C128.517 116.555 128.548 116.633 128.561 116.715C128.574 116.797 128.568 116.881 128.543 116.96Z" fill="#D1D3D4"/>
<path d="M130.584 117.191C130.533 117.368 130.423 117.521 130.271 117.625C130.12 117.729 129.937 117.777 129.754 117.761C129.671 117.752 129.592 117.726 129.52 117.683C129.449 117.641 129.388 117.583 129.341 117.515C129.295 117.446 129.264 117.368 129.25 117.286C129.237 117.205 129.241 117.121 129.264 117.041C129.316 116.866 129.427 116.715 129.579 116.613C129.73 116.511 129.912 116.464 130.094 116.481C130.176 116.486 130.257 116.51 130.329 116.551C130.401 116.592 130.463 116.649 130.51 116.717C130.558 116.786 130.589 116.864 130.601 116.946C130.614 117.028 130.608 117.112 130.584 117.191Z" fill="#D1D3D4"/>
<path d="M156.133 123.611C156.013 123.61 155.896 123.568 155.803 123.491C155.716 123.414 155.658 123.309 155.64 123.194C155.622 123.079 155.644 122.961 155.703 122.861C156.908 120.968 158.596 119.432 160.593 118.411L160.233 117.581C160.194 117.507 160.173 117.425 160.173 117.341C160.173 117.257 160.194 117.175 160.233 117.101C160.28 117.03 160.344 116.973 160.419 116.934C160.495 116.896 160.579 116.877 160.663 116.881L165.243 117.031C165.326 117.035 165.407 117.058 165.478 117.1C165.55 117.142 165.61 117.201 165.653 117.271C165.693 117.343 165.714 117.424 165.714 117.506C165.714 117.588 165.693 117.669 165.653 117.741L163.773 121.741C163.738 121.82 163.683 121.889 163.613 121.94C163.542 121.991 163.46 122.022 163.373 122.031C163.288 122.04 163.202 122.028 163.124 121.995C163.045 121.961 162.976 121.908 162.923 121.841L162.103 120.781C160.06 121.38 158.126 122.302 156.373 123.511C156.304 123.565 156.221 123.599 156.133 123.611ZM161.463 117.911L161.703 118.451C161.758 118.572 161.762 118.709 161.715 118.832C161.668 118.956 161.574 119.056 161.453 119.111C160.349 119.632 159.336 120.327 158.453 121.171C159.688 120.59 160.965 120.106 162.273 119.721C162.369 119.693 162.47 119.695 162.564 119.725C162.659 119.756 162.742 119.813 162.803 119.891L163.333 120.581L164.543 118.011L161.463 117.911Z" fill="#D1D3D4"/>
<path d="M161.603 125.271L154.773 124.491C154.701 124.486 154.631 124.464 154.569 124.428C154.506 124.391 154.453 124.341 154.413 124.281C154.373 124.222 154.346 124.154 154.334 124.083C154.322 124.013 154.325 123.94 154.343 123.871L155.943 117.741C155.974 117.626 156.044 117.526 156.141 117.459C156.238 117.391 156.356 117.36 156.473 117.371L159.533 117.711C159.666 117.725 159.787 117.792 159.871 117.896C159.954 118 159.993 118.133 159.978 118.266C159.964 118.398 159.897 118.52 159.793 118.603C159.689 118.687 159.556 118.725 159.423 118.711L156.793 118.411L155.453 123.571L161.283 124.231L161.883 121.931C161.899 121.866 161.927 121.806 161.966 121.752C162.005 121.699 162.055 121.654 162.112 121.62C162.169 121.587 162.232 121.565 162.297 121.557C162.363 121.548 162.43 121.553 162.493 121.571C162.62 121.606 162.728 121.69 162.794 121.804C162.859 121.918 162.877 122.054 162.843 122.181L162.143 124.901C162.113 125.017 162.042 125.119 161.942 125.186C161.843 125.254 161.723 125.284 161.603 125.271Z" fill="#D1D3D4"/>
<path d="M190.313 70.0309H190.263L94.1634 60.8809C94.098 60.8759 94.0344 60.8578 93.9761 60.8278C93.9179 60.7978 93.8662 60.7563 93.8243 60.706C93.7823 60.6556 93.7509 60.5974 93.7318 60.5347C93.7128 60.472 93.7065 60.4061 93.7134 60.3409C93.7184 60.2755 93.7364 60.2119 93.7665 60.1536C93.7965 60.0953 93.8379 60.0437 93.8883 60.0018C93.9386 59.9598 93.9969 59.9284 94.0596 59.9093C94.1223 59.8903 94.1882 59.884 94.2534 59.8909L190.353 69.0309C190.419 69.0371 190.483 69.0564 190.541 69.0875C190.6 69.1185 190.651 69.1609 190.693 69.212C190.735 69.2632 190.766 69.3221 190.785 69.3854C190.804 69.4487 190.81 69.5152 190.803 69.5809C190.793 69.7038 190.737 69.8184 190.646 69.9018C190.556 69.9852 190.437 70.0313 190.313 70.0309Z" fill="#D1D3D4"/>
<path d="M112.693 57.351H112.593L109.193 57.111C109.083 57.111 109.073 57.111 109.103 56.971C109.513 55.511 109.913 54.051 110.323 52.591C110.323 52.451 110.323 52.451 110.493 52.461L111.773 52.571C111.863 52.571 111.903 52.571 111.943 52.461C112.123 52.011 112.303 51.561 112.493 51.111L112.633 50.781C112.633 50.691 112.633 50.661 112.563 50.651L111.023 50.531C110.923 50.531 110.903 50.531 110.933 50.391C111.053 49.981 111.163 49.571 111.283 49.161C111.337 48.9907 111.445 48.843 111.592 48.7416C111.739 48.6401 111.915 48.5906 112.093 48.601L113.143 48.691C113.233 48.691 113.273 48.691 113.293 48.571L113.713 47.061C113.713 46.981 113.713 46.941 113.643 46.931C113.083 46.931 112.533 46.821 111.963 46.811C111.576 46.8117 111.193 46.9024 110.846 47.0759C110.499 47.2495 110.197 47.501 109.963 47.811C109.717 48.1021 109.536 48.4432 109.433 48.811C109.303 49.271 109.173 49.741 109.053 50.201C109.053 50.301 108.983 50.321 108.883 50.311L107.573 50.201C107.483 50.201 107.453 50.201 107.423 50.311C107.273 50.881 107.113 51.451 106.953 52.021C106.953 52.121 106.953 52.141 107.033 52.151L108.363 52.251C108.453 52.251 108.473 52.251 108.443 52.381L107.213 56.801C107.213 56.891 107.213 56.921 107.073 56.911L100.913 56.461H100.813L104.163 44.231L116.093 45.291L112.693 57.351Z" fill="#DAFF99"/>
<path d="M74.4934 37.0705L13.3834 48.1805C11.9097 48.4479 10.5032 49.0031 9.24418 49.8143C7.98516 50.6255 6.89833 51.6769 6.04581 52.9083C5.19328 54.1398 4.59176 55.5271 4.27563 56.9911C3.9595 58.4551 3.93496 59.967 4.20339 61.4405L11.9934 104.321C12.5383 107.296 14.2416 109.934 16.7296 111.655C19.2175 113.376 22.2867 114.04 25.2634 113.5L77.6034 103.981L87.6934 112.651L87.1634 102.201C89.956 101.488 92.3746 99.7427 93.9315 97.3173C95.4885 94.8918 96.068 91.9663 95.5534 89.1305L87.7534 46.2605C87.4871 44.7859 86.9328 43.3783 86.1221 42.1182C85.3113 40.858 84.2601 39.7701 83.0286 38.9165C81.797 38.063 80.4093 37.4606 78.9448 37.1439C77.4802 36.8271 75.9676 36.8022 74.4934 37.0705Z" fill="white"/>
<path d="M23.2135 114.181C20.4266 114.175 17.7297 113.194 15.5908 111.407C13.4518 109.621 12.0057 107.142 11.5035 104.401L3.69349 61.5306C3.41234 59.9912 3.43781 58.4115 3.76844 56.882C4.09907 55.3525 4.72837 53.9033 5.62024 52.6175C6.51211 51.3318 7.64901 50.2347 8.96575 49.3892C10.2825 48.5437 11.7532 47.9665 13.2935 47.6906L74.4035 36.5806C77.5046 36.0171 80.7025 36.7059 83.2967 38.496C85.8909 40.286 87.6697 43.0314 88.2435 46.1306L96.0435 89.0006C96.5715 91.8954 96.011 94.8833 94.4697 97.39C92.9284 99.8967 90.5151 101.745 87.6935 102.581L88.2035 112.581C88.2066 112.677 88.1817 112.772 88.132 112.855C88.0822 112.937 88.0096 113.004 87.923 113.046C87.8363 113.088 87.7393 113.105 87.6436 113.093C87.5479 113.081 87.4575 113.042 87.3835 112.981L77.4835 104.471L25.3835 113.951C24.6686 114.093 23.9423 114.17 23.2135 114.181ZM74.5835 37.5606L13.4735 48.6706C12.0641 48.9259 10.7188 49.4566 9.51457 50.2322C8.31036 51.0078 7.27083 52.0132 6.45541 53.1908C5.64 54.3684 5.06468 55.6952 4.76235 57.0953C4.46003 58.4954 4.43663 59.9414 4.69349 61.3506L12.4935 104.231C13.0142 107.075 14.6414 109.596 17.0184 111.242C19.3955 112.888 22.3282 113.524 25.1735 113.011L77.5135 103.491C77.5873 103.476 77.6633 103.479 77.736 103.498C77.8088 103.517 77.8763 103.552 77.9335 103.601L87.1135 111.511L86.6935 102.231C86.6897 102.115 86.7252 102.002 86.7943 101.909C86.8633 101.816 86.9617 101.75 87.0735 101.721C89.7373 101.026 92.0409 99.3519 93.524 97.0327C95.0071 94.7134 95.5605 91.92 95.0735 89.2106L87.2835 46.3406C86.7628 43.4966 85.1356 40.9752 82.7585 39.3293C80.3815 37.6834 77.4488 37.0473 74.6035 37.5606H74.5835Z" fill="#231F20"/>
<path d="M24.1235 76.9407L39.0435 74.2207L42.9735 95.8407L30.0635 98.1907L24.1235 76.9407Z" fill="#DAFF99"/>
<path d="M30.0634 98.6907C29.954 98.6901 29.8477 98.6536 29.761 98.5868C29.6743 98.5199 29.6119 98.4265 29.5834 98.3207L23.6934 77.0707C23.6665 77.0075 23.6526 76.9395 23.6526 76.8707C23.6526 76.802 23.6665 76.734 23.6934 76.6707C23.7312 76.612 23.781 76.5619 23.8397 76.524C23.8983 76.486 23.9644 76.4611 24.0334 76.4507L38.9534 73.7307C39.0185 73.7193 39.0851 73.7208 39.1496 73.7352C39.214 73.7497 39.275 73.7767 39.3289 73.8149C39.3828 73.853 39.4287 73.9014 39.4638 73.9573C39.4989 74.0133 39.5226 74.0756 39.5334 74.1407L43.4634 95.7507C43.4868 95.8806 43.4579 96.0145 43.383 96.1232C43.308 96.2318 43.1932 96.3064 43.0634 96.3307L30.1534 98.6807L30.0634 98.6907ZM24.7534 77.3307L30.4234 97.6107L42.4234 95.4407L38.6934 74.8107L24.7534 77.3307Z" fill="#231F20"/>
<path d="M38.2935 94.5606C39.2544 94.5606 40.0335 93.7815 40.0335 92.8206C40.0335 91.8596 39.2544 91.0806 38.2935 91.0806C37.3325 91.0806 36.5535 91.8596 36.5535 92.8206C36.5535 93.7815 37.3325 94.5606 38.2935 94.5606Z" fill="#231F20"/>
<path d="M39.2935 75.5705C39.2935 75.5705 40.1835 75.2605 42.3635 72.0205C44.5435 68.7805 47.1735 60.7905 47.2235 59.4705C47.2735 58.1505 45.8335 53.0205 46.4135 51.8205C46.9935 50.6205 50.0235 49.1905 51.7735 50.8205C53.6495 52.7677 55.0225 55.1429 55.7735 57.7405C56.0935 59.5105 56.1935 66.8505 56.1935 66.8505L71.1935 64.1305C73.3835 63.7405 74.1935 65.2005 74.3235 66.9205C74.4535 68.6405 72.8735 70.9905 72.8735 70.9905C72.8735 70.9905 74.8735 71.3405 74.7235 73.9205C74.7011 74.6503 74.5087 75.3649 74.1615 76.0073C73.8143 76.6496 73.3218 77.202 72.7235 77.6205C73.1767 77.8743 73.5291 78.2758 73.722 78.7581C73.9149 79.2403 73.9366 79.7742 73.7835 80.2705C73.6969 80.8636 73.4943 81.4339 73.1871 81.9487C72.88 82.4635 72.4744 82.9126 71.9935 83.2705C72.5465 83.4637 73.0012 83.8668 73.2594 84.3926C73.5176 84.9184 73.5586 85.5247 73.3735 86.0805C72.9135 88.3605 71.8935 89.9305 70.0635 90.3305C68.2335 90.7305 50.0635 93.9805 48.2635 94.3305C46.4635 94.6805 46.2635 93.7505 45.2635 93.6005C44.3419 93.5591 43.4192 93.65 42.5235 93.8705L39.2935 75.5705Z" fill="white"/>
<path d="M47.6035 94.8309C47.0158 94.8335 46.4409 94.6593 45.9535 94.3309C45.7457 94.1861 45.5111 94.0842 45.2635 94.0309C44.4087 93.9945 43.5532 94.0821 42.7235 94.2909C42.6579 94.3085 42.5893 94.3122 42.5222 94.3019C42.455 94.2916 42.3908 94.2674 42.3335 94.2309C42.2758 94.1943 42.2265 94.146 42.1886 94.0892C42.1507 94.0323 42.1251 93.9682 42.1135 93.9009L38.7935 75.6609C38.7735 75.5462 38.7933 75.4281 38.8497 75.3262C38.9061 75.2243 38.9957 75.1448 39.1035 75.1009C39.1735 75.1009 40.0135 74.6109 41.9435 71.7409C44.1335 68.4909 46.6835 60.5809 46.7235 59.4509C46.6592 58.5763 46.5322 57.7074 46.3435 56.8509C45.8635 54.3009 45.5635 52.4309 45.9635 51.6009C46.3025 51.0888 46.7442 50.6529 47.2606 50.3206C47.7771 49.9884 48.357 49.7671 48.9635 49.6709C49.5135 49.546 50.0855 49.5543 50.6317 49.6952C51.1779 49.8361 51.6825 50.1055 52.1035 50.4809C54.067 52.4973 55.5027 54.9669 56.2835 57.6709C56.5535 59.1809 56.6635 64.4809 56.6935 66.2809L71.0735 63.6609C71.4888 63.5575 71.9213 63.5442 72.3422 63.6218C72.763 63.6994 73.1624 63.8662 73.5135 64.1109C73.9089 64.4594 74.227 64.8868 74.4474 65.3656C74.6679 65.8443 74.7857 66.3639 74.7935 66.8909C74.7653 68.265 74.3493 69.6031 73.5935 70.7509C74.1475 71.068 74.5952 71.5421 74.88 72.1134C75.1647 72.6847 75.2738 73.3276 75.1935 73.9609C75.1489 75.3469 74.5639 76.6606 73.5635 77.6209C73.9066 77.9831 74.154 78.4252 74.2832 78.9071C74.4124 79.3891 74.4194 79.8956 74.3035 80.3809C74.1237 81.4224 73.6321 82.3849 72.8935 83.1409C73.3431 83.482 73.6791 83.9509 73.8575 84.4862C74.036 85.0216 74.0485 85.5983 73.8935 86.1409C73.3535 88.8009 72.1135 90.3609 70.2035 90.7809C68.7435 91.1009 56.9035 93.2209 51.2035 94.2409L48.3835 94.7509C48.1261 94.7988 47.8652 94.8256 47.6035 94.8309ZM44.8535 93.0109C45.0398 92.9949 45.2272 92.9949 45.4135 93.0109C45.7726 93.079 46.1134 93.2222 46.4135 93.4309C46.6653 93.6063 46.9526 93.7241 47.255 93.776C47.5575 93.8278 47.8677 93.8124 48.1635 93.7309L50.9935 93.2309C56.6735 92.2309 68.5035 90.0909 69.9935 89.7709C71.4835 89.4509 72.4635 88.1809 72.9235 85.9109C73.0861 85.4825 73.0721 85.0072 72.8846 84.5891C72.6972 84.171 72.3515 83.8444 71.9235 83.6809C71.8327 83.6521 71.7517 83.5984 71.6899 83.5259C71.628 83.4535 71.5877 83.3651 71.5735 83.2709C71.5643 83.1761 71.5807 83.0806 71.6212 82.9943C71.6617 82.9081 71.7247 82.8344 71.8035 82.7809C72.6505 82.152 73.2148 81.2139 73.3735 80.1709C73.6535 78.6009 72.7035 78.1109 72.5935 78.0609C72.5117 78.0209 72.4419 77.9601 72.3911 77.8846C72.3402 77.8092 72.31 77.7217 72.3035 77.6309C72.2983 77.5411 72.318 77.4516 72.3603 77.3722C72.4027 77.2928 72.466 77.2267 72.5435 77.1809C73.0628 76.7968 73.4871 76.2987 73.7835 75.7248C74.08 75.151 74.2408 74.5167 74.2535 73.8709C74.3435 71.8709 72.9735 71.4909 72.8135 71.4609C72.7323 71.4408 72.6568 71.4024 72.5927 71.3487C72.5285 71.2949 72.4775 71.2273 72.4435 71.1509C72.4066 71.0781 72.3873 70.9976 72.3873 70.9159C72.3873 70.8343 72.4066 70.7537 72.4435 70.6809C72.8635 70.0709 73.9335 68.2009 73.8035 66.9509C73.8094 66.5606 73.7343 66.1733 73.5828 65.8136C73.4314 65.4538 73.2068 65.1294 72.9235 64.8609C72.6798 64.705 72.4061 64.6022 72.1201 64.5591C71.8341 64.5161 71.5422 64.5337 71.2635 64.6109L56.2635 67.3309C56.1913 67.3406 56.1178 67.3359 56.0474 67.3171C55.9771 67.2982 55.9111 67.2655 55.8535 67.2209C55.7972 67.1749 55.7518 67.1169 55.7206 67.0512C55.6895 66.9855 55.6734 66.9136 55.6735 66.8409C55.6735 66.7709 55.5735 59.5209 55.2635 57.8409C54.523 55.3477 53.192 53.07 51.3835 51.2009C51.0787 50.9341 50.7146 50.7441 50.3214 50.6467C49.9283 50.5493 49.5176 50.5473 49.1235 50.6409C48.6658 50.7089 48.2261 50.8667 47.8297 51.1053C47.4333 51.3438 47.0879 51.6584 46.8135 52.0309C46.5235 52.6209 46.9735 55.0309 47.2735 56.6609C47.4858 57.588 47.6196 58.5313 47.6735 59.4809C47.6135 60.8909 44.9335 69.0009 42.6735 72.2909C41.8828 73.6044 40.8946 74.7883 39.7435 75.8009L42.9035 93.2009C43.5464 93.0786 44.1991 93.015 44.8535 93.0109Z" fill="#231F20"/>
<path d="M68.2935 163.451L81.1434 155.701L67.6934 158.371L67.2534 154.651C67.143 153.695 66.8452 152.771 66.3773 151.93C65.9093 151.09 65.2803 150.35 64.5261 149.753C63.772 149.156 62.9076 148.713 61.9823 148.45C61.057 148.187 60.0889 148.109 59.1334 148.221L14.6934 153.391C13.7379 153.501 12.8134 153.799 11.973 154.267C11.1326 154.735 10.3926 155.364 9.79547 156.118C9.1983 156.872 8.75562 157.737 8.49275 158.662C8.22987 159.587 8.15195 160.555 8.26345 161.511L11.2634 187.731C11.3797 188.69 11.6843 189.617 12.1598 190.459C12.6352 191.3 13.2722 192.039 14.0341 192.634C14.7959 193.229 15.6678 193.667 16.5995 193.924C17.5312 194.181 18.5045 194.251 19.4634 194.131L63.8834 188.961C65.8142 188.735 67.5762 187.752 68.7821 186.227C69.9879 184.703 70.5387 182.761 70.3134 180.831L68.2935 163.451Z" fill="white"/>
<path d="M18.6134 194.711C16.6951 194.707 14.8444 194.001 13.411 192.726C11.9776 191.451 11.0607 189.695 10.8334 187.791L7.83344 161.571C7.59939 159.511 8.18929 157.443 9.47444 155.817C10.7596 154.191 12.6357 153.139 14.6934 152.891L59.1234 147.721C61.1849 147.484 63.256 148.074 64.8831 149.362C66.5101 150.65 67.5603 152.53 67.8034 154.591L68.1734 157.781L81.0834 155.211C81.1998 155.185 81.3216 155.202 81.4267 155.258C81.5319 155.314 81.6135 155.406 81.6569 155.517C81.7004 155.628 81.7027 155.75 81.6636 155.863C81.6244 155.976 81.5464 156.071 81.4434 156.131L68.8634 163.711L70.8634 180.811C71.1028 182.873 70.5136 184.945 69.2253 186.573C67.9371 188.2 66.0552 189.25 63.9934 189.491L19.5734 194.661C19.255 194.699 18.9342 194.716 18.6134 194.711ZM59.9934 148.711C59.7303 148.696 59.4666 148.696 59.2034 148.711L14.7734 153.881C13.8824 153.984 13.0204 154.261 12.2366 154.697C11.4529 155.134 10.7627 155.72 10.2056 156.423C9.6484 157.126 9.23516 157.932 8.98944 158.794C8.74372 159.657 8.67032 160.56 8.77344 161.451L11.7734 187.681C11.9841 189.479 12.8993 191.121 14.3183 192.245C15.7373 193.37 17.5444 193.886 19.3434 193.681L63.7734 188.511C65.5719 188.3 67.2134 187.385 68.3381 185.966C69.4628 184.547 69.979 182.74 69.7734 180.941L67.7734 163.521C67.7641 163.425 67.7816 163.328 67.824 163.242C67.8664 163.155 67.932 163.082 68.0135 163.031L78.4234 156.761L67.7734 158.871C67.7064 158.885 67.6372 158.885 67.5701 158.871C67.5031 158.857 67.4395 158.83 67.3834 158.791C67.2749 158.703 67.2034 158.578 67.1834 158.441L66.7534 154.721C66.5604 153.06 65.7662 151.528 64.5207 150.414C63.2753 149.299 61.6648 148.679 59.9934 148.671V148.711Z" fill="#231F20"/>
<path d="M20.5835 171.311L30.2335 170.241L31.7735 184.211L23.4235 185.131L20.5835 171.311Z" fill="#DAFF99"/>
<path d="M23.4234 185.631C23.3081 185.631 23.1964 185.591 23.1071 185.518C23.0178 185.445 22.9564 185.344 22.9334 185.231L20.0934 171.411C20.079 171.342 20.0792 171.271 20.0941 171.203C20.1089 171.134 20.1381 171.069 20.1796 171.013C20.2211 170.956 20.274 170.909 20.335 170.874C20.3959 170.839 20.4635 170.818 20.5334 170.811L30.1734 169.751C30.3046 169.737 30.436 169.775 30.539 169.858C30.642 169.94 30.7083 170.06 30.7234 170.191L32.2734 184.191C32.2803 184.257 32.2741 184.323 32.2552 184.386C32.2362 184.45 32.2049 184.509 32.1631 184.56C32.1212 184.611 32.0697 184.653 32.0114 184.684C31.9531 184.715 31.8892 184.735 31.8234 184.741L23.4834 185.661L23.4234 185.631ZM21.1834 171.741L23.8234 184.581L31.2234 183.771L29.7834 170.771L21.1834 171.741Z" fill="#231F20"/>
<path d="M28.9235 183.191C29.542 183.191 30.0435 182.689 30.0435 182.071C30.0435 181.452 29.542 180.951 28.9235 180.951C28.3049 180.951 27.8035 181.452 27.8035 182.071C27.8035 182.689 28.3049 183.191 28.9235 183.191Z" fill="#231F20"/>
<path d="M30.3235 171.131C30.3235 171.131 30.9135 170.971 32.4435 169.001C34.0394 166.596 35.2758 163.972 36.1135 161.211C36.2035 160.371 35.5135 157.031 35.9335 156.291C36.3535 155.551 38.3535 154.781 39.4035 155.911C40.5194 157.238 41.2951 158.817 41.6635 160.511C41.7835 161.651 41.5235 166.341 41.5235 166.341L51.1935 165.271C52.6035 165.121 53.0335 166.091 53.0635 167.191C52.9318 168.12 52.5479 168.995 51.9535 169.721C52.3437 169.864 52.6646 170.15 52.8505 170.522C53.0364 170.894 53.0732 171.323 52.9535 171.721C52.9114 172.184 52.762 172.631 52.5173 173.027C52.2726 173.423 51.9392 173.756 51.5435 174.001C51.8224 174.182 52.0302 174.454 52.1322 174.771C52.2342 175.088 52.224 175.43 52.1035 175.741C51.929 176.485 51.4694 177.131 50.8235 177.541C51.1693 177.688 51.443 177.967 51.5852 178.315C51.7275 178.663 51.7268 179.053 51.5835 179.401C51.1835 180.831 50.4635 181.781 49.2835 181.961C48.1035 182.141 36.2835 183.391 35.1935 183.511C34.1035 183.631 33.9535 183.061 33.3335 182.921C32.7474 182.853 32.1547 182.87 31.5735 182.971L30.3235 171.131Z" fill="white"/>
<path d="M34.9435 183.961C34.471 183.968 34.0097 183.817 33.6335 183.531C33.5309 183.439 33.4072 183.374 33.2735 183.341C32.7531 183.261 32.2238 183.261 31.7035 183.341C31.5699 183.361 31.4336 183.329 31.3235 183.251C31.2691 183.209 31.224 183.156 31.1913 183.096C31.1586 183.036 31.1389 182.969 31.1335 182.901L29.8335 171.131C29.8188 171.019 29.8437 170.906 29.9041 170.811C29.9644 170.716 30.0562 170.645 30.1635 170.611C30.9152 170.071 31.5567 169.392 32.0535 168.611C33.5903 166.278 34.7889 163.74 35.6135 161.071C35.6098 160.522 35.5663 159.974 35.4835 159.431C35.2835 157.701 35.1835 156.521 35.4835 155.951C35.7385 155.614 36.0619 155.335 36.4324 155.131C36.8029 154.928 37.2122 154.805 37.6335 154.771C38.0163 154.713 38.4075 154.747 38.7746 154.87C39.1416 154.994 39.4738 155.203 39.7435 155.481C40.9357 156.883 41.7605 158.56 42.1435 160.361C42.2435 161.291 42.1435 164.361 42.0335 165.691L51.1135 164.691C51.408 164.64 51.7099 164.652 51.9994 164.726C52.289 164.8 52.5596 164.935 52.7935 165.121C53.0504 165.384 53.2498 165.698 53.3789 166.042C53.508 166.386 53.5641 166.754 53.5435 167.121C53.4765 167.976 53.1756 168.796 52.6735 169.491C52.9942 169.746 53.2392 170.084 53.382 170.468C53.5247 170.852 53.5598 171.268 53.4835 171.671C53.391 172.541 52.9859 173.347 52.3435 173.941C52.5212 174.203 52.6385 174.501 52.6869 174.814C52.7353 175.127 52.7136 175.447 52.6235 175.751C52.4656 176.379 52.1408 176.952 51.6835 177.411C51.9251 177.677 52.0907 178.003 52.1629 178.355C52.235 178.707 52.211 179.071 52.0935 179.411C51.6135 181.151 50.7035 182.141 49.3835 182.331C48.3835 182.481 40.7035 183.331 37.0035 183.711L35.2735 183.891C35.1655 183.923 35.0552 183.946 34.9435 183.961ZM32.7935 182.301C33.0283 182.293 33.2633 182.314 33.4935 182.361C33.7539 182.421 33.9968 182.541 34.2035 182.711C34.3419 182.823 34.5035 182.902 34.6764 182.943C34.8494 182.985 35.0294 182.988 35.2035 182.951L36.9335 182.761C40.3435 182.391 48.3335 181.541 49.2735 181.401C50.2135 181.261 50.8035 180.541 51.1735 179.191C51.4335 178.241 50.7935 177.971 50.7235 177.941C50.6348 177.906 50.5574 177.847 50.4993 177.771C50.4412 177.696 50.4047 177.606 50.3935 177.511C50.388 177.415 50.4095 177.319 50.4554 177.234C50.5013 177.149 50.5699 177.079 50.6535 177.031C50.9093 176.862 51.1293 176.644 51.3009 176.391C51.4725 176.137 51.5923 175.851 51.6535 175.551C51.8835 174.661 51.3535 174.381 51.3535 174.371C51.2712 174.331 51.2018 174.268 51.1533 174.19C51.1048 174.112 51.0791 174.023 51.0791 173.931C51.0791 173.839 51.1048 173.749 51.1533 173.672C51.2018 173.594 51.2712 173.531 51.3535 173.491C51.6744 173.283 51.9439 173.005 52.1414 172.677C52.3389 172.35 52.4593 171.982 52.4935 171.601C52.6235 170.481 51.9535 170.221 51.8135 170.181C51.7335 170.159 51.6604 170.117 51.6009 170.06C51.5415 170.002 51.4976 169.93 51.4735 169.851C51.4484 169.774 51.4425 169.691 51.4565 169.611C51.4704 169.531 51.5037 169.455 51.5535 169.391C52.085 168.761 52.4312 167.996 52.5535 167.181C52.5825 166.733 52.4353 166.292 52.1435 165.951C52.0138 165.856 51.8661 165.79 51.7094 165.756C51.5528 165.721 51.3907 165.72 51.2335 165.751L41.5635 166.821C41.4908 166.825 41.4181 166.815 41.3494 166.791C41.2808 166.767 41.2176 166.73 41.1635 166.681C41.1123 166.63 41.0725 166.569 41.0467 166.502C41.0208 166.435 41.0095 166.363 41.0135 166.291C41.1035 164.681 41.2535 161.411 41.1535 160.541C40.7948 158.956 40.0648 157.479 39.0235 156.231C38.8577 156.07 38.6565 155.949 38.436 155.88C38.2154 155.811 37.9817 155.794 37.7535 155.831C37.2185 155.873 36.7204 156.12 36.3635 156.521C36.2585 157.477 36.2922 158.444 36.4635 159.391C36.5646 160.005 36.6082 160.628 36.5935 161.251C35.7525 164.093 34.4847 166.79 32.8335 169.251C32.265 170.035 31.5922 170.739 30.8335 171.341L32.0435 182.341C32.2835 182.321 32.5435 182.301 32.7935 182.301Z" fill="#231F20"/>
<path d="M246.363 192.621L239.213 144.521C239.097 143.73 238.826 142.97 238.416 142.284C238.006 141.598 237.464 140.999 236.822 140.523C236.18 140.046 235.451 139.701 234.676 139.507C233.9 139.312 233.094 139.273 232.303 139.391L171.933 148.391L157.043 137.391L163.293 149.751C161.956 150.219 160.825 151.14 160.095 152.354C159.364 153.569 159.081 155 159.293 156.401L166.443 204.511C166.561 205.301 166.833 206.06 167.244 206.745C167.654 207.429 168.196 208.027 168.838 208.502C169.479 208.978 170.209 209.322 170.983 209.516C171.758 209.709 172.564 209.748 173.353 209.631L241.293 199.531C242.88 199.282 244.303 198.415 245.253 197.121C246.203 195.826 246.602 194.208 246.363 192.621Z" fill="white"/>
<path d="M172.404 210.201C170.826 210.195 169.303 209.625 168.11 208.594C166.916 207.564 166.13 206.14 165.894 204.581L158.744 156.481C158.529 155.052 158.791 153.593 159.489 152.327C160.186 151.062 161.281 150.062 162.604 149.481L156.604 137.611C156.555 137.509 156.541 137.394 156.564 137.284C156.588 137.173 156.647 137.074 156.734 137.001C156.822 136.931 156.931 136.893 157.044 136.893C157.156 136.893 157.265 136.931 157.354 137.001L172.074 147.851L232.234 138.851C233.962 138.601 235.718 139.044 237.121 140.084C238.524 141.123 239.459 142.675 239.724 144.401L246.874 192.501C247.126 194.229 246.684 195.987 245.644 197.391C244.604 198.794 243.051 199.729 241.324 199.991L173.384 210.131C173.059 210.174 172.731 210.197 172.404 210.201ZM158.404 139.041L163.714 149.531C163.743 149.595 163.758 149.665 163.758 149.736C163.758 149.807 163.743 149.876 163.714 149.941C163.687 150.008 163.646 150.068 163.595 150.118C163.543 150.168 163.481 150.206 163.414 150.231C162.178 150.652 161.129 151.493 160.449 152.607C159.77 153.722 159.502 155.039 159.694 156.331L166.844 204.431C166.951 205.157 167.201 205.855 167.578 206.485C167.956 207.114 168.453 207.664 169.043 208.101C169.633 208.538 170.303 208.855 171.015 209.034C171.727 209.212 172.467 209.249 173.194 209.141L241.124 199.041C242.589 198.821 243.908 198.029 244.79 196.839C245.673 195.649 246.048 194.157 245.834 192.691L238.694 144.591C238.474 143.125 237.682 141.807 236.492 140.924C235.301 140.041 233.81 139.666 232.344 139.881L171.984 148.881C171.918 148.89 171.852 148.886 171.788 148.868C171.725 148.851 171.665 148.821 171.614 148.781L158.404 139.041Z" fill="#231F20"/>
<path d="M228.723 170.221L212.553 171.061L213.783 194.471L227.763 193.741L228.723 170.221Z" fill="#DAFF99"/>
<path d="M213.783 194.971C213.656 194.971 213.533 194.922 213.44 194.835C213.347 194.748 213.291 194.628 213.283 194.501L212.053 171.131C212.051 171.065 212.061 170.999 212.084 170.938C212.106 170.876 212.141 170.819 212.186 170.771C212.23 170.723 212.284 170.684 212.344 170.656C212.403 170.629 212.468 170.613 212.533 170.611L228.693 169.761C228.763 169.755 228.833 169.765 228.899 169.789C228.964 169.814 229.024 169.852 229.073 169.901C229.171 170.003 229.225 170.139 229.223 170.281L228.223 193.801C228.221 193.925 228.171 194.045 228.084 194.134C227.996 194.223 227.878 194.276 227.753 194.281L213.753 195.011L213.783 194.971ZM213.083 171.541L214.253 193.951L227.253 193.261L228.163 170.751L213.083 171.541Z" fill="#231F20"/>
<path d="M217.903 192.051C218.931 192.051 219.763 191.218 219.763 190.191C219.763 189.163 218.931 188.331 217.903 188.331C216.876 188.331 216.043 189.163 216.043 190.191C216.043 191.218 216.876 192.051 217.903 192.051Z" fill="#231F20"/>
<path d="M212.634 172.521C212.634 172.521 211.634 172.421 208.574 169.591C205.514 166.761 200.824 159.111 200.444 157.751C200.064 156.391 200.304 150.751 199.444 149.611C198.584 148.471 195.054 147.771 193.634 149.911C192.153 152.395 191.302 155.203 191.154 158.091C191.254 160.001 192.954 167.651 192.954 167.651L176.754 168.491C174.384 168.621 173.934 170.331 174.184 172.151C174.434 173.971 176.684 176.021 176.684 176.021C176.684 176.021 174.744 176.881 175.494 179.521C175.687 180.271 176.053 180.966 176.561 181.551C177.07 182.136 177.707 182.595 178.424 182.891C178.016 183.264 177.749 183.765 177.667 184.311C177.585 184.857 177.694 185.415 177.974 185.891C178.458 187.073 179.389 188.018 180.564 188.521C180.036 188.854 179.661 189.383 179.52 189.992C179.38 190.6 179.485 191.24 179.814 191.771C180.814 194.021 182.294 195.401 184.294 195.371C186.294 195.341 205.994 194.241 207.904 194.141C209.814 194.041 209.824 193.051 210.794 192.651C211.741 192.385 212.72 192.254 213.704 192.261L212.634 172.521Z" fill="white"/>
<path d="M184.194 195.881C182.144 195.881 180.504 194.571 179.314 191.991C179.022 191.464 178.896 190.862 178.951 190.263C179.007 189.664 179.241 189.095 179.624 188.631C178.666 188.026 177.916 187.143 177.474 186.101C177.231 185.625 177.113 185.096 177.131 184.563C177.148 184.03 177.301 183.509 177.574 183.051C176.937 182.684 176.379 182.195 175.933 181.612C175.486 181.028 175.16 180.361 174.974 179.651C174.731 179.015 174.686 178.322 174.842 177.66C174.999 176.999 175.352 176.4 175.854 175.941C174.784 174.933 174.022 173.643 173.654 172.221C173.532 171.678 173.526 171.115 173.634 170.569C173.743 170.023 173.964 169.506 174.284 169.051C174.585 168.713 174.955 168.444 175.369 168.261C175.783 168.078 176.231 167.986 176.684 167.991L192.304 167.181C191.894 165.351 190.694 159.751 190.614 158.111C190.753 155.115 191.636 152.2 193.184 149.631C193.522 149.147 193.97 148.75 194.492 148.474C195.013 148.197 195.593 148.049 196.184 148.041C196.834 147.988 197.489 148.072 198.106 148.287C198.722 148.502 199.287 148.844 199.764 149.291C200.374 150.051 200.524 152.061 200.654 154.821C200.665 155.759 200.745 156.695 200.894 157.621C201.224 158.781 205.814 166.381 208.894 169.221C211.674 171.791 212.654 172.011 212.694 172.021C212.808 172.035 212.914 172.091 212.991 172.177C213.069 172.264 213.112 172.375 213.114 172.491L214.114 192.251C214.118 192.319 214.108 192.387 214.083 192.451C214.059 192.515 214.022 192.573 213.974 192.621C213.878 192.717 213.749 192.77 213.614 192.771C212.697 192.756 211.784 192.877 210.904 193.131C210.656 193.245 210.435 193.408 210.254 193.611C209.945 193.935 209.572 194.192 209.159 194.364C208.746 194.536 208.301 194.62 207.854 194.611L204.684 194.781C198.564 195.121 185.804 195.781 184.214 195.841L184.194 195.881ZM196.474 149.041H196.264C195.824 149.039 195.391 149.143 194.999 149.343C194.608 149.543 194.27 149.834 194.014 150.191C192.597 152.585 191.774 155.284 191.614 158.061C191.704 159.911 193.384 167.461 193.404 167.541C193.418 167.612 193.418 167.685 193.403 167.755C193.387 167.826 193.357 167.893 193.314 167.951C193.27 168.009 193.214 168.056 193.15 168.091C193.086 168.125 193.016 168.146 192.944 168.151L176.744 168.991C176.429 168.981 176.116 169.038 175.825 169.157C175.534 169.276 175.271 169.454 175.054 169.681C174.828 170.042 174.679 170.447 174.617 170.868C174.555 171.29 174.581 171.72 174.694 172.131C174.874 173.481 176.444 175.131 177.034 175.691C177.094 175.748 177.14 175.818 177.168 175.896C177.196 175.975 177.205 176.058 177.194 176.141C177.179 176.224 177.144 176.302 177.091 176.369C177.039 176.435 176.971 176.487 176.894 176.521C176.744 176.591 175.374 177.291 175.984 179.421C176.158 180.088 176.484 180.707 176.937 181.227C177.389 181.747 177.956 182.156 178.594 182.421C178.682 182.448 178.76 182.5 178.819 182.571C178.877 182.642 178.914 182.729 178.924 182.821C178.939 182.911 178.929 183.003 178.895 183.087C178.862 183.172 178.806 183.246 178.734 183.301C178.418 183.61 178.218 184.017 178.165 184.455C178.112 184.893 178.211 185.336 178.444 185.711C178.865 186.767 179.689 187.612 180.734 188.061C180.825 188.092 180.905 188.149 180.965 188.226C181.024 188.302 181.061 188.394 181.069 188.49C181.077 188.586 181.058 188.683 181.012 188.768C180.967 188.854 180.898 188.924 180.814 188.971C180.606 189.106 180.428 189.281 180.288 189.486C180.149 189.691 180.051 189.921 180.001 190.164C179.951 190.406 179.949 190.656 179.996 190.899C180.043 191.143 180.137 191.374 180.274 191.581C181.274 193.831 182.634 194.941 184.274 194.891C185.914 194.841 198.584 194.171 204.704 193.831L207.864 193.661C208.196 193.671 208.527 193.608 208.833 193.477C209.138 193.346 209.412 193.149 209.634 192.901C209.916 192.605 210.257 192.37 210.634 192.211C211.465 191.944 212.331 191.802 213.204 191.791L212.204 172.891C210.748 172.132 209.424 171.142 208.284 169.961C205.184 167.101 200.414 159.341 200.014 157.891C199.839 156.9 199.745 155.897 199.734 154.891C199.654 153.141 199.524 150.501 199.064 149.891C198.343 149.283 197.414 148.978 196.474 149.041Z" fill="#231F20"/>
<path d="M242.203 68.7909L191.603 57.3109C190.754 57.1172 189.874 57.0929 189.015 57.2394C188.156 57.3859 187.334 57.7003 186.597 58.1647C185.859 58.6291 185.221 59.2343 184.717 59.9458C184.214 60.6572 183.856 61.4609 183.663 62.3109L177.553 89.2409L164.483 94.2409L176.213 95.1609L175.763 97.1609C175.568 98.0106 175.543 98.8906 175.689 99.7501C175.835 100.61 176.149 101.432 176.614 102.17C177.078 102.907 177.684 103.546 178.396 104.049C179.108 104.552 179.913 104.91 180.763 105.101L231.363 116.581C233.079 116.969 234.879 116.661 236.368 115.724C237.856 114.786 238.912 113.296 239.303 111.581L247.203 76.7309C247.592 75.015 247.284 73.2152 246.346 71.7265C245.409 70.2378 243.919 69.182 242.203 68.7909Z" fill="white"/>
<path d="M232.844 117.251C232.309 117.25 231.775 117.19 231.254 117.071L180.694 105.591C178.848 105.171 177.245 104.036 176.236 102.434C175.227 100.833 174.895 98.8967 175.314 97.0508L175.634 95.6108L164.484 94.7408C164.418 94.75 164.351 94.7462 164.287 94.7295C164.223 94.7129 164.162 94.6838 164.11 94.6439C164.057 94.6039 164.012 94.554 163.978 94.4968C163.945 94.4397 163.923 94.3765 163.914 94.3108C163.904 94.2452 163.908 94.1783 163.925 94.1142C163.941 94.05 163.971 93.9897 164.011 93.9368C164.05 93.8838 164.1 93.8393 164.158 93.8057C164.215 93.7721 164.278 93.75 164.344 93.7408L177.164 88.8508L183.214 62.1708C183.643 60.3455 184.773 58.7623 186.359 57.7632C187.946 56.764 189.862 56.4291 191.694 56.8308L242.294 68.3008C244.138 68.723 245.739 69.8588 246.748 71.4594C247.756 73.0601 248.089 74.9952 247.674 76.8408L239.774 111.691C239.412 113.275 238.522 114.689 237.25 115.7C235.977 116.71 234.398 117.257 232.774 117.251H232.844ZM166.694 93.9108L176.214 94.6608C176.285 94.6678 176.354 94.6896 176.416 94.7249C176.478 94.7602 176.532 94.8081 176.574 94.8656C176.617 94.9232 176.647 94.989 176.662 95.0588C176.677 95.1286 176.678 95.2008 176.664 95.2708L176.204 97.2708C175.848 98.8566 176.136 100.519 177.004 101.893C177.872 103.267 179.249 104.24 180.834 104.601L231.474 116.131C232.259 116.31 233.072 116.332 233.866 116.197C234.66 116.062 235.419 115.771 236.101 115.342C236.783 114.913 237.373 114.354 237.839 113.696C238.304 113.039 238.635 112.296 238.814 111.511L246.694 76.6208C247.049 75.0338 246.762 73.3705 245.894 71.9949C245.026 70.6193 243.649 69.6434 242.064 69.2808L191.494 57.8008C190.708 57.622 189.894 57.6 189.099 57.736C188.305 57.872 187.545 58.1633 186.863 58.5934C186.181 59.0234 185.591 59.5838 185.126 60.2422C184.661 60.9007 184.331 61.6444 184.154 62.4308L178.044 89.3608C178.024 89.44 177.986 89.5133 177.932 89.5743C177.878 89.6353 177.81 89.6822 177.734 89.7108L166.694 93.9108Z" fill="#231F20"/>
<path d="M232.174 87.9909L219.254 86.2109L216.664 104.921L227.844 106.461L232.174 87.9909Z" fill="#DAFF99"/>
<path d="M227.843 106.961H227.773L216.593 105.421C216.528 105.411 216.466 105.389 216.41 105.355C216.353 105.321 216.304 105.276 216.265 105.223C216.226 105.17 216.198 105.11 216.182 105.046C216.167 104.982 216.164 104.916 216.173 104.851L218.753 86.1308C218.773 86.0008 218.843 85.8834 218.947 85.8032C219.051 85.7231 219.183 85.6864 219.313 85.7008L232.233 87.4908C232.303 87.4992 232.371 87.5223 232.431 87.5585C232.491 87.5947 232.543 87.6432 232.583 87.7008C232.622 87.7591 232.648 87.8247 232.66 87.8936C232.672 87.9624 232.67 88.0329 232.653 88.1008L228.333 106.571C228.308 106.682 228.246 106.781 228.157 106.852C228.068 106.923 227.957 106.961 227.843 106.961ZM217.233 104.491L227.463 105.911L231.553 88.4108L219.693 86.7708L217.233 104.491Z" fill="#231F20"/>
<path d="M220.573 103.651C221.402 103.651 222.073 102.979 222.073 102.151C222.073 101.322 221.402 100.651 220.573 100.651C219.745 100.651 219.073 101.322 219.073 102.151C219.073 102.979 219.745 103.651 220.573 103.651Z" fill="#231F20"/>
<path d="M219.084 87.3706C219.084 87.3706 218.313 87.1406 216.313 84.4306C214.26 81.144 212.703 77.5721 211.694 73.8306C211.594 72.7006 212.694 68.2406 212.104 67.2306C211.514 66.2206 208.913 65.1106 207.463 66.5906C205.914 68.3293 204.812 70.4197 204.254 72.6806C204.044 74.2106 204.254 80.5206 204.254 80.5206L191.303 78.7406C189.403 78.4706 188.793 79.7406 188.713 81.2406C188.633 82.7406 190.104 84.6806 190.104 84.6806C189.577 84.8474 189.132 85.2065 188.858 85.6864C188.583 86.1663 188.5 86.7319 188.623 87.2706C188.662 87.8952 188.847 88.502 189.163 89.0421C189.48 89.5823 189.918 90.0407 190.444 90.3806C190.06 90.6128 189.768 90.9709 189.619 91.3939C189.469 91.8169 189.471 92.2787 189.623 92.7006C189.83 93.7076 190.422 94.594 191.273 95.1706C190.806 95.356 190.429 95.7176 190.226 96.1777C190.022 96.6378 190.007 97.1595 190.183 97.6306C190.663 99.5706 191.603 100.881 193.183 101.161C194.763 101.441 210.533 103.551 212.063 103.761C213.594 103.971 213.744 103.201 214.574 103.031C215.362 102.963 216.157 103.007 216.933 103.161L219.084 87.3706Z" fill="white"/>
<path d="M212.524 104.301C212.337 104.314 212.15 104.314 211.964 104.301L209.614 103.981C204.614 103.311 194.344 101.921 193.064 101.691C191.384 101.391 190.234 100.081 189.674 97.7906C189.52 97.3302 189.505 96.8351 189.629 96.3661C189.754 95.8971 190.012 95.4746 190.374 95.1506C189.737 94.523 189.295 93.724 189.104 92.8506C188.988 92.4382 188.974 92.0041 189.06 91.5848C189.147 91.1655 189.334 90.7732 189.604 90.4406C188.728 89.6392 188.192 88.534 188.104 87.3506C188.011 86.81 188.077 86.2541 188.293 85.7501C188.51 85.2461 188.868 84.8156 189.324 84.5106C188.651 83.553 188.257 82.4283 188.184 81.2606C188.165 80.7985 188.244 80.3376 188.416 79.9083C188.589 79.4791 188.85 79.0913 189.184 78.7706C189.483 78.541 189.828 78.3784 190.195 78.2939C190.563 78.2093 190.944 78.2048 191.314 78.2806L203.694 79.9506C203.694 78.3306 203.564 73.9506 203.744 72.6106C204.313 70.2438 205.461 68.0551 207.084 66.2406C207.438 65.8953 207.87 65.6397 208.343 65.4953C208.816 65.3509 209.317 65.3219 209.804 65.4106C210.342 65.4689 210.863 65.6396 211.331 65.9118C211.8 66.184 212.206 66.5515 212.524 66.9906C212.914 67.7106 212.724 69.2706 212.404 71.5606C212.274 72.2976 212.197 73.0428 212.174 73.7906C213.175 77.4369 214.697 80.9195 216.694 84.1306C218.474 86.5406 219.204 86.8806 219.234 86.8906C219.343 86.9272 219.435 87.0019 219.494 87.1011C219.553 87.2002 219.574 87.3172 219.554 87.4306L217.374 103.221C217.365 103.288 217.343 103.353 217.308 103.411C217.274 103.47 217.228 103.52 217.174 103.561C217.118 103.6 217.054 103.628 216.987 103.642C216.92 103.656 216.851 103.655 216.784 103.641C216.07 103.491 215.339 103.448 214.614 103.511C214.413 103.561 214.226 103.653 214.064 103.781C213.619 104.115 213.079 104.297 212.524 104.301ZM190.804 79.2006C190.445 79.1758 190.089 79.2825 189.804 79.5006C189.366 79.9843 189.133 80.6187 189.154 81.2706C189.287 82.4068 189.734 83.4836 190.444 84.3806C190.493 84.4489 190.526 84.5283 190.538 84.612C190.55 84.6956 190.542 84.781 190.514 84.8606C190.485 84.9386 190.437 85.0079 190.374 85.0622C190.311 85.1164 190.235 85.1537 190.154 85.1706C190.034 85.1706 188.914 85.5306 189.064 87.2306C189.101 87.7725 189.261 88.2988 189.531 88.7699C189.801 89.2411 190.175 89.6448 190.624 89.9506C190.703 89.9935 190.769 90.057 190.815 90.1344C190.862 90.2119 190.886 90.3004 190.886 90.3906C190.886 90.4808 190.862 90.5693 190.815 90.6468C190.769 90.7243 190.703 90.7878 190.624 90.8306C190.544 90.8306 189.794 91.3106 190.084 92.5906C190.259 93.4622 190.764 94.2324 191.494 94.7406C191.577 94.7876 191.644 94.8584 191.687 94.9439C191.73 95.0295 191.746 95.1258 191.734 95.2206C191.724 95.3147 191.688 95.404 191.629 95.4784C191.571 95.5527 191.493 95.609 191.404 95.6406C191.23 95.7127 191.073 95.8185 190.941 95.9517C190.809 96.085 190.704 96.2432 190.633 96.4171C190.563 96.591 190.527 96.7772 190.529 96.9649C190.531 97.1526 190.57 97.3381 190.644 97.5106C191.114 99.4106 191.964 100.441 193.244 100.671C194.524 100.901 204.794 102.281 209.744 102.951L212.104 103.271C212.352 103.329 212.611 103.33 212.86 103.275C213.109 103.22 213.343 103.109 213.544 102.951C213.817 102.756 214.126 102.617 214.454 102.541C215.117 102.443 215.79 102.443 216.454 102.541L218.514 87.5406C217.495 86.7133 216.608 85.7354 215.884 84.6406C213.781 81.2769 212.187 77.6207 211.154 73.7906C211.161 72.9652 211.242 72.142 211.394 71.3306C211.574 70.0306 211.884 67.8606 211.624 67.3306C211.123 66.726 210.405 66.3418 209.624 66.2606C209.293 66.1972 208.952 66.2131 208.629 66.307C208.305 66.4009 208.009 66.57 207.764 66.8006C206.292 68.465 205.239 70.457 204.694 72.6106C204.484 74.0806 204.694 80.3106 204.694 80.3706C204.694 80.4439 204.68 80.5166 204.65 80.5838C204.621 80.651 204.578 80.7113 204.524 80.7606C204.468 80.8067 204.405 80.8411 204.336 80.8617C204.267 80.8823 204.195 80.8888 204.124 80.8806L191.174 79.0906L190.804 79.2006Z" fill="#231F20"/>
</svg>
