<svg width="24" height="24" viewBox="0 0 24 24" fill="none" xmlns="http://www.w3.org/2000/svg">
<path d="M7 23C6.45 23 5.979 22.804 5.587 22.412C5.195 22.02 4.99934 21.5493 5 21V3C5 2.45 5.196 1.979 5.588 1.587C5.98 1.195 6.45067 0.999335 7 1H17C17.55 1 18.021 1.196 18.413 1.588C18.805 1.98 19.0007 2.45067 19 3V7H17V6H7V18H17V17H19V21C19 21.55 18.804 22.021 18.412 22.413C18.02 22.805 17.5493 23.0007 17 23H7ZM7 20V21H17V20H7ZM7 4H17V3H7V4ZM17.15 13H12V15C12 15.2833 11.904 15.521 11.712 15.713C11.52 15.905 11.2827 16.0007 11 16C10.7167 16 10.479 15.904 10.287 15.712C10.095 15.52 9.99934 15.2827 10 15V13C10 12.45 10.196 11.979 10.588 11.587C10.98 11.195 11.4507 10.9993 12 11H17.15L16.275 10.1C16.0917 9.91667 16 9.68734 16 9.412C16 9.13667 16.1 8.89933 16.3 8.7C16.4833 8.51667 16.7167 8.425 17 8.425C17.2833 8.425 17.5167 8.51667 17.7 8.7L20.3 11.3C20.5 11.5 20.6 11.7333 20.6 12C20.6 12.2667 20.5 12.5 20.3 12.7L17.7 15.3C17.5167 15.4833 17.2873 15.5793 17.012 15.588C16.7367 15.5967 16.4993 15.5007 16.3 15.3C16.1167 15.1167 16.0207 14.8873 16.012 14.612C16.0033 14.3367 16.091 14.0993 16.275 13.9L17.15 13Z" fill="white"/>
</svg>
