<svg width="64" height="73" viewBox="0 0 64 73" fill="none" xmlns="http://www.w3.org/2000/svg">
<g clip-path="url(#clip0_294_2622)">
<path d="M64 36.0626C64 31.8702 58.6906 27.8971 50.5504 25.4332C52.4289 17.229 51.594 10.7017 47.9152 8.61199C47.0673 8.1218 46.0758 7.88961 44.9931 7.88961V10.7662C45.5931 10.7662 46.0758 10.8823 46.4802 11.1016C48.2544 12.1078 49.0241 15.939 48.424 20.8667C48.2805 22.0793 48.0457 23.3564 47.7587 24.6593C45.2018 24.0401 42.4101 23.5628 39.4749 23.2532C37.7138 20.8667 35.8875 18.6996 34.0481 16.8033C38.3009 12.8947 42.2927 10.7533 45.0061 10.7533V7.87671C41.4187 7.87671 36.7224 10.4051 31.9739 14.791C27.2254 10.4309 22.5291 7.92831 18.9417 7.92831V10.8049C21.6421 10.8049 25.647 12.9334 29.8997 16.8162C28.0734 18.7125 26.247 20.8667 24.512 23.2532C21.5638 23.5628 18.7721 24.0401 16.2152 24.6722C15.9152 23.3822 15.6934 22.1309 15.5369 20.9312C14.9238 16.0035 15.6804 12.1723 17.4415 11.1532C17.8329 10.921 18.3416 10.8178 18.9417 10.8178V7.94121C17.8459 7.94121 16.8545 8.1734 15.9935 8.66359C12.3278 10.7533 11.5059 17.2677 13.3975 25.4461C5.28333 27.9229 0 31.8831 0 36.0626C0 40.255 5.30942 44.2281 13.4497 46.692C11.5711 54.8962 12.406 61.4235 16.0848 63.5132C16.9327 64.0034 17.9242 64.2356 19.02 64.2356C22.6074 64.2356 27.3037 61.7073 32.0522 57.3214C36.8007 61.6815 41.4969 64.184 45.0844 64.184C46.1802 64.184 47.1716 63.9518 48.0326 63.4617C51.6983 61.3719 52.5202 54.8575 50.6286 46.6791C58.7167 44.2152 64 40.2421 64 36.0626ZM47.0151 27.4585C46.5324 29.1226 45.9323 30.8382 45.254 32.5539C44.7191 31.5219 44.1582 30.4899 43.545 29.458C42.945 28.426 42.3058 27.4198 41.6665 26.4394C43.519 26.7103 45.3062 27.0457 47.0151 27.4585ZM41.0404 41.1967C40.0228 42.9382 38.9792 44.5893 37.8965 46.1244C35.9527 46.2921 33.9829 46.3824 32 46.3824C30.0302 46.3824 28.0603 46.2921 26.1296 46.1373C25.0469 44.6022 23.9902 42.964 22.9727 41.2354C21.9812 39.5455 21.0811 37.8299 20.2593 36.1013C21.0681 34.3728 21.9813 32.6442 22.9596 30.9543C23.9772 29.2129 25.0208 27.5617 26.1035 26.0266C28.0473 25.8589 30.0171 25.7686 32 25.7686C33.9698 25.7686 35.9397 25.8589 37.8704 26.0137C38.9531 27.5488 40.0098 29.1871 41.0273 30.9156C42.0188 32.6055 42.9189 34.3212 43.7407 36.0497C42.9189 37.7783 42.0188 39.5068 41.0404 41.1967ZM45.254 39.5197C45.9584 41.2483 46.5585 42.9769 47.0542 44.6538C45.3453 45.0666 43.545 45.4149 41.6796 45.6858C42.3188 44.6925 42.958 43.6735 43.5581 42.6286C44.1582 41.5966 44.7191 40.5517 45.254 39.5197ZM32.0261 53.2838C30.8129 52.0454 29.5997 50.6651 28.3995 49.1558C29.5736 49.2074 30.7737 49.2461 31.987 49.2461C33.2132 49.2461 34.4264 49.2203 35.6135 49.1558C34.4395 50.6651 33.2263 52.0454 32.0261 53.2838ZM22.3204 45.6858C20.468 45.4149 18.6808 45.0795 16.9719 44.6667C17.4545 43.0027 18.0546 41.287 18.733 39.5714C19.2678 40.6033 19.8288 41.6353 20.4419 42.6673C21.055 43.6993 21.6812 44.7054 22.3204 45.6858ZM31.9609 18.8415C33.1741 20.0799 34.3873 21.4601 35.5874 22.9694C34.4134 22.9178 33.2132 22.8791 32 22.8791C30.7737 22.8791 29.5605 22.9049 28.3734 22.9694C29.5475 21.4601 30.7607 20.0799 31.9609 18.8415ZM22.3074 26.4394C21.6682 27.4327 21.0289 28.4518 20.4289 29.4967C19.8288 30.5286 19.2678 31.5606 18.733 32.5926C18.0285 30.864 17.4285 29.1355 16.9327 27.4585C18.6417 27.0586 20.4419 26.7103 22.3074 26.4394ZM10.5014 42.5899C5.88341 40.642 2.89605 38.0879 2.89605 36.0626C2.89605 34.0374 5.88341 31.4703 10.5014 29.5354C11.6233 29.0581 12.8496 28.6324 14.115 28.2325C14.8585 30.7608 15.8369 33.3924 17.0501 36.0884C15.85 38.7716 14.8846 41.3902 14.1541 43.9057C12.8626 43.5058 11.6364 43.0672 10.5014 42.5899ZM17.5198 61.0236C15.7456 60.0174 14.976 56.1862 15.576 51.2585C15.7195 50.0459 15.9543 48.7689 16.2413 47.466C18.7982 48.0852 21.5899 48.5625 24.5251 48.8721C26.2862 51.2585 28.1125 53.4257 29.9519 55.3219C25.6991 59.2305 21.7073 61.3719 18.9939 61.3719C18.4068 61.359 17.9111 61.2429 17.5198 61.0236ZM48.4631 51.194C49.0762 56.1217 48.3196 59.9529 46.5585 60.972C46.1671 61.2042 45.6584 61.3074 45.0583 61.3074C42.3579 61.3074 38.353 59.1789 34.1003 55.2961C35.9266 53.3999 37.753 51.2456 39.488 48.8592C42.4362 48.5496 45.2279 48.0723 47.7848 47.4402C48.0848 48.7431 48.3196 49.9943 48.4631 51.194ZM53.4855 42.5899C52.3636 43.0672 51.1374 43.4929 49.872 43.8928C49.1284 41.3644 48.15 38.7329 46.9368 36.0368C48.137 33.3537 49.1023 30.735 49.8329 28.2196C51.1243 28.6195 52.3506 29.0581 53.4986 29.5354C58.1166 31.4832 61.104 34.0374 61.104 36.0626C61.0909 38.0879 58.1035 40.6549 53.4855 42.5899Z" fill="#144C4E"/>
<path d="M31.9871 41.9576C35.2796 41.9576 37.9488 39.3182 37.9488 36.0624C37.9488 32.8066 35.2796 30.1672 31.9871 30.1672C28.6945 30.1672 26.0254 32.8066 26.0254 36.0624C26.0254 39.3182 28.6945 41.9576 31.9871 41.9576Z" fill="#144C4E"/>
</g>
<defs>
<clipPath id="clip0_294_2622">
<rect width="64" height="72.1127" fill="white"/>
</clipPath>
</defs>
</svg>
