<svg width="20" height="21" viewBox="0 0 20 21" fill="none" xmlns="http://www.w3.org/2000/svg">
<path d="M8.33339 12.1667L17.5001 3M8.33339 12.1667L11.2501 18C11.2866 18.0798 11.3453 18.1474 11.4192 18.1948C11.493 18.2422 11.579 18.2674 11.6667 18.2674C11.7545 18.2674 11.8404 18.2422 11.9143 18.1948C11.9881 18.1474 12.0468 18.0798 12.0834 18L17.5001 3M8.33339 12.1667L2.50006 9.25C2.42027 9.21344 2.35266 9.15474 2.30526 9.08088C2.25786 9.00701 2.23267 8.9211 2.23267 8.83333C2.23267 8.74557 2.25786 8.65965 2.30526 8.58579C2.35266 8.51193 2.42027 8.45323 2.50006 8.41667L17.5001 3" stroke="#031A1B" stroke-width="2" stroke-linecap="round" stroke-linejoin="round"/>
</svg>
