<svg width="75" height="34" viewBox="0 0 75 34" fill="none" xmlns="http://www.w3.org/2000/svg">
<path d="M13.712 26V26.5H14.212V26H13.712ZM3.44 26H2.94V26.5H3.44V26ZM3.44 9.2V8.7H2.94V9.2H3.44ZM7.04 9.2H7.54V8.7H7.04V9.2ZM7.04 22.904H6.54V23.404H7.04V22.904ZM13.712 22.904H14.212V22.404H13.712V22.904ZM13.712 25.5H3.44V26.5H13.712V25.5ZM3.94 26V9.2H2.94V26H3.94ZM3.44 9.7H7.04V8.7H3.44V9.7ZM6.54 9.2V22.904H7.54V9.2H6.54ZM7.04 23.404H13.712V22.404H7.04V23.404ZM13.212 22.904V26H14.212V22.904H13.212ZM18.2675 26H17.7675V26.5H18.2675V26ZM18.2675 9.2V8.7H17.7675V9.2H18.2675ZM29.5475 9.2H30.0475V8.7H29.5475V9.2ZM29.5475 12.296V12.796H30.0475V12.296H29.5475ZM21.8675 12.296V11.796H21.3675V12.296H21.8675ZM21.8675 16.064H21.3675V16.564H21.8675V16.064ZM28.1075 16.064H28.6075V15.564H28.1075V16.064ZM28.1075 19.016V19.516H28.6075V19.016H28.1075ZM21.8675 19.016V18.516H21.3675V19.016H21.8675ZM21.8675 22.904H21.3675V23.404H21.8675V22.904ZM29.8115 22.904H30.3115V22.404H29.8115V22.904ZM29.8115 26V26.5H30.3115V26H29.8115ZM18.7675 26V9.2H17.7675V26H18.7675ZM18.2675 9.7H29.5475V8.7H18.2675V9.7ZM29.0475 9.2V12.296H30.0475V9.2H29.0475ZM29.5475 11.796H21.8675V12.796H29.5475V11.796ZM21.3675 12.296V16.064H22.3675V12.296H21.3675ZM21.8675 16.564H28.1075V15.564H21.8675V16.564ZM27.6075 16.064V19.016H28.6075V16.064H27.6075ZM28.1075 18.516H21.8675V19.516H28.1075V18.516ZM21.3675 19.016V22.904H22.3675V19.016H21.3675ZM21.8675 23.404H29.8115V22.404H21.8675V23.404ZM29.3115 22.904V26H30.3115V22.904H29.3115ZM29.8115 25.5H18.2675V26.5H29.8115V25.5ZM33.4184 26L32.9967 25.7314L32.5072 26.5H33.4184V26ZM38.8904 17.408L39.3122 17.6766L39.4829 17.4085L39.3126 17.1401L38.8904 17.408ZM33.6824 9.2V8.7H32.773L33.2603 9.46788L33.6824 9.2ZM37.9544 9.2L38.3808 8.93881L38.2345 8.7H37.9544V9.2ZM41.2184 14.528L40.7921 14.7892L41.2108 15.4727L41.6405 14.7961L41.2184 14.528ZM44.6024 9.2V8.7H44.3277L44.1804 8.93193L44.6024 9.2ZM48.6344 9.2L49.0559 9.469L49.5467 8.7H48.6344V9.2ZM43.4264 17.36L43.005 17.091L42.8339 17.359L43.004 17.6275L43.4264 17.36ZM48.8984 26V26.5H49.8069L49.3209 25.7325L48.8984 26ZM44.6024 26L44.1761 26.2612L44.3224 26.5H44.6024V26ZM41.0744 20.24L41.5008 19.9788L41.0815 19.2943L40.652 19.9725L41.0744 20.24ZM37.4264 26V26.5H37.7016L37.8488 26.2675L37.4264 26ZM33.8402 26.2686L39.3122 17.6766L38.4687 17.1394L32.9967 25.7314L33.8402 26.2686ZM39.3126 17.1401L34.1046 8.93212L33.2603 9.46788L38.4683 17.6759L39.3126 17.1401ZM33.6824 9.7H37.9544V8.7H33.6824V9.7ZM37.5281 9.46119L40.7921 14.7892L41.6448 14.2668L38.3808 8.93881L37.5281 9.46119ZM41.6405 14.7961L45.0245 9.46807L44.1804 8.93193L40.7964 14.2599L41.6405 14.7961ZM44.6024 9.7H48.6344V8.7H44.6024V9.7ZM48.213 8.931L43.005 17.091L43.8479 17.629L49.0559 9.469L48.213 8.931ZM43.004 17.6275L48.476 26.2675L49.3209 25.7325L43.8488 17.0925L43.004 17.6275ZM48.8984 25.5H44.6024V26.5H48.8984V25.5ZM45.0288 25.7388L41.5008 19.9788L40.6481 20.5012L44.1761 26.2612L45.0288 25.7388ZM40.652 19.9725L37.004 25.7325L37.8488 26.2675L41.4968 20.5075L40.652 19.9725ZM37.4264 25.5H33.4184V26.5H37.4264V25.5ZM53.2194 26H52.7194V26.5H53.2194V26ZM53.2194 9.2V8.7H52.7194V9.2H53.2194ZM56.8194 9.2H57.3194V8.7H56.8194V9.2ZM56.8194 26V26.5H57.3194V26H56.8194ZM53.7194 26V9.2H52.7194V26H53.7194ZM53.2194 9.7H56.8194V8.7H53.2194V9.7ZM56.3194 9.2V26H57.3194V9.2H56.3194ZM56.8194 25.5H53.2194V26.5H56.8194V25.5ZM62.3047 26H61.8047V26.5H62.3047V26ZM62.3047 9.2V8.7H61.8047V9.2H62.3047ZM73.5847 9.2H74.0847V8.7H73.5847V9.2ZM73.5847 12.296V12.796H74.0847V12.296H73.5847ZM65.9047 12.296V11.796H65.4047V12.296H65.9047ZM65.9047 16.064H65.4047V16.564H65.9047V16.064ZM72.1447 16.064H72.6447V15.564H72.1447V16.064ZM72.1447 19.016V19.516H72.6447V19.016H72.1447ZM65.9047 19.016V18.516H65.4047V19.016H65.9047ZM65.9047 22.904H65.4047V23.404H65.9047V22.904ZM73.8487 22.904H74.3487V22.404H73.8487V22.904ZM73.8487 26V26.5H74.3487V26H73.8487ZM62.8047 26V9.2H61.8047V26H62.8047ZM62.3047 9.7H73.5847V8.7H62.3047V9.7ZM73.0847 9.2V12.296H74.0847V9.2H73.0847ZM73.5847 11.796H65.9047V12.796H73.5847V11.796ZM65.4047 12.296V16.064H66.4047V12.296H65.4047ZM65.9047 16.564H72.1447V15.564H65.9047V16.564ZM71.6447 16.064V19.016H72.6447V16.064H71.6447ZM72.1447 18.516H65.9047V19.516H72.1447V18.516ZM65.4047 19.016V22.904H66.4047V19.016H65.4047ZM65.9047 23.404H73.8487V22.404H65.9047V23.404ZM73.3487 22.904V26H74.3487V22.904H73.3487ZM73.8487 25.5H62.3047V26.5H73.8487V25.5Z" fill="#DAFF99"/>
<path d="M11.712 26H1.44V9.2H5.04V22.904H11.712V26ZM16.2675 26V9.2H27.5475V12.296H19.8675V16.064H26.1075V19.016H19.8675V22.904H27.8115V26H16.2675ZM31.4184 26L36.8904 17.408L31.6824 9.2H35.9544L39.2184 14.528L42.6024 9.2H46.6344L41.4264 17.36L46.8984 26H42.6024L39.0744 20.24L35.4264 26H31.4184ZM51.2194 26V9.2H54.8194V26H51.2194ZM60.3047 26V9.2H71.5847V12.296H63.9047V16.064H70.1447V19.016H63.9047V22.904H71.8487V26H60.3047Z" fill="#DAFF99"/>
</svg>
