<svg width="24" height="24" viewBox="0 0 24 24" fill="none" xmlns="http://www.w3.org/2000/svg">
<path d="M12 0.806641L23.835 8.49964L22 9.69264V15.9996H20V10.9926L19 11.6426V17.4996C19 18.9696 17.986 20.1146 16.747 20.8386C15.482 21.5756 13.802 21.9986 12 21.9986C10.198 21.9986 8.51704 21.5756 7.25304 20.8386C6.01304 20.1146 5.00004 18.9686 5.00004 17.4986V11.6426L0.165039 8.49964L12 0.806641ZM7.00004 12.9426V17.4996C7.00004 17.9626 7.33004 18.5666 8.26104 19.1096C9.16904 19.6396 10.488 19.9996 12 19.9996C13.512 19.9996 14.831 19.6396 15.739 19.1096C16.671 18.5666 16.999 17.9626 16.999 17.4996V12.9426L11.999 16.1926L7.00004 12.9426ZM20.165 8.49964L12 3.19264L3.83504 8.49964L12 13.8066L20.165 8.49964Z" fill="#DAFF99"/>
</svg>
