<svg width="32" height="33" viewBox="0 0 32 33" fill="none" xmlns="http://www.w3.org/2000/svg">
<path d="M15.004 26.154C14.1262 25.4495 5.97554 17.5219 5.88443 17.4352C5.52445 17.0751 5.2978 16.7017 5.23558 16.3595C5.17114 16.0039 5.28002 15.6927 5.56889 15.4038C5.83777 15.1349 6.16664 14.9926 6.51996 14.9926C6.95104 14.9926 7.39324 15.1971 7.76211 15.5683L11.4575 19.1198C11.5219 19.1821 11.6064 19.2132 11.6886 19.2132C11.7752 19.2132 11.8597 19.1798 11.9241 19.1154C12.053 18.9865 12.053 18.7776 11.9263 18.6487L6.02665 12.5546C5.43557 11.9634 5.1578 11.0588 5.85999 10.3565C6.12886 10.0876 6.45774 9.94535 6.81105 9.94535C7.24214 9.94535 7.68434 10.1498 8.05321 10.521L14.0884 16.4062C14.1529 16.4684 14.2373 16.5017 14.3218 16.5017C14.4062 16.5017 14.4929 16.4684 14.5573 16.4039C14.6862 16.275 14.6884 16.0661 14.5595 15.935L7.31102 8.50295C6.97549 8.16735 6.77328 7.76508 6.73772 7.37392C6.70439 6.97609 6.84438 6.60715 7.14437 6.30712C7.41324 6.03819 7.74211 5.89595 8.09543 5.89595C8.52652 5.89595 8.96872 6.10042 9.33759 6.46936L16.7305 13.6792C16.795 13.7414 16.8794 13.7747 16.9639 13.7747C17.0483 13.7747 17.135 13.7414 17.1994 13.6769C17.3283 13.548 17.3305 13.3391 17.2016 13.208L11.833 7.68951C11.4953 7.35169 11.293 6.95164 11.2597 6.56048C11.2264 6.16265 11.3664 5.79372 11.6664 5.49368C11.9352 5.22476 12.2641 5.08252 12.6174 5.08252C13.0485 5.08252 13.4907 5.28699 13.8596 5.65815C15.8284 7.59172 20.9681 12.6479 21.1414 12.8346C21.8014 13.2902 21.9347 12.6012 21.968 12.1545C22.0058 11.6344 21.4103 9.81867 21.7569 8.18513C22.3391 6.01375 24.0168 6.36935 24.0546 6.38713C24.9745 6.81829 24.799 7.46282 24.4724 8.75854L24.439 9.01412C24.0968 10.7077 26.4478 15.7261 26.6211 16.1017C27.5433 18.1197 28.6055 22.2113 25.0879 25.7295C21.2325 29.5856 16.4594 27.6098 15.004 26.154Z" fill="url(#paint0_radial_367_1824)"/>
<path d="M19.9511 28.3184C17.5868 28.3184 15.5758 27.1871 14.7825 26.4026C14.0692 25.8203 9.56718 21.4731 5.90071 17.9149C5.75183 17.7704 5.66517 17.6882 5.65628 17.6771C5.24074 17.2615 4.98298 16.8281 4.90965 16.4191C4.82521 15.9546 4.96965 15.5346 5.33407 15.1679C5.66739 14.8345 6.07626 14.6589 6.52068 14.6589C7.04287 14.6589 7.56729 14.8989 7.99838 15.3323L11.6893 18.8794L5.78738 12.7853C5.10742 12.1053 4.76521 10.9784 5.62517 10.1206C5.95848 9.78719 6.36735 9.61161 6.81177 9.61161C7.33397 9.61161 7.85839 9.85164 8.28947 10.285L14.3203 16.1658L7.07398 8.73594C6.68734 8.34923 6.44957 7.87584 6.40735 7.40467C6.36513 6.90238 6.53845 6.44232 6.90955 6.07117C7.24286 5.73779 7.65173 5.56221 8.09615 5.56221C8.61612 5.56221 9.14054 5.80002 9.57385 6.23341L16.9646 13.441L11.596 7.92251C11.2071 7.53357 10.9693 7.06018 10.9293 6.58901C10.8871 6.08895 11.0604 5.62889 11.4315 5.25773C11.7648 4.92436 12.1737 4.74878 12.6181 4.74878C13.1403 4.74878 13.6647 4.98881 14.0958 5.4222L15.698 6.9935C18.5534 9.79385 20.9399 12.1386 21.1955 12.4008C21.3199 12.5009 21.4821 12.5386 21.551 12.5053C21.5954 12.4831 21.6443 12.3808 21.6354 12.1653C21.6221 11.7874 21.5688 11.3185 21.5132 10.8229C21.4021 9.82719 21.2866 8.79595 21.431 8.11587C21.7465 6.93572 22.3665 6.43566 22.8287 6.22007C23.4642 5.9267 24.0798 6.02894 24.1975 6.0845C25.353 6.62679 25.1241 7.53357 24.8086 8.79151L24.8019 8.82262L24.7664 9.08265C24.5353 10.2206 25.7219 13.3654 26.9085 15.928L26.9263 15.9635C27.7196 17.6971 29.1484 22.1443 25.3264 25.967C23.5687 27.7205 21.6666 28.3184 19.9511 28.3184ZM6.52068 15.3257C6.25847 15.3257 6.00959 15.4346 5.80516 15.639C5.59406 15.8502 5.52073 16.0546 5.56517 16.2991C5.61406 16.568 5.81183 16.8881 6.1207 17.1992C6.12292 17.2014 6.2118 17.2881 6.36513 17.4348C11.5693 22.4866 14.7114 25.4892 15.2136 25.8936L15.2402 25.9181C16.4668 27.1449 21.0244 29.323 24.8531 25.4936C28.3795 21.9665 27.0529 17.8482 26.3174 16.2391L26.3019 16.2058C25.5375 14.5567 23.7998 10.5562 24.1086 8.96042L24.1598 8.62704C24.502 7.26687 24.522 6.98239 23.942 6.70236C23.7709 6.67124 22.5443 6.52233 22.0754 8.27144C21.9576 8.82929 22.071 9.84942 22.171 10.7495C22.2287 11.2585 22.2821 11.7408 22.2954 12.143C22.3176 12.7764 22.0176 13.0187 21.8354 13.1076C21.4643 13.2876 21.0221 13.1343 20.7466 12.9031L20.7177 12.8765C20.5822 12.7298 17.3579 9.56716 15.2247 7.47356L13.6203 5.89781C13.0737 5.34885 12.3693 5.25773 11.896 5.73112C11.6649 5.96226 11.5604 6.23341 11.5849 6.53345C11.6115 6.84682 11.7804 7.17353 12.0626 7.45578L17.4423 12.9743C17.6956 13.2321 17.6956 13.6543 17.4379 13.9121C17.1912 14.1588 16.7557 14.1633 16.5024 13.9188L9.10499 6.7068C8.55835 6.16007 7.85172 6.06894 7.38063 6.54234C7.14953 6.77348 7.04509 7.04462 7.06954 7.34466C7.09843 7.65803 7.26731 7.98696 7.54729 8.26477L14.798 15.7013C15.0536 15.9591 15.0513 16.3813 14.7936 16.6392C14.5469 16.8859 14.1114 16.8903 13.8581 16.6458L7.82061 10.7584C7.27397 10.2072 6.56734 10.1183 6.09626 10.5917C5.52073 11.1674 5.82738 11.8808 6.26291 12.3186L12.167 18.4172C12.4204 18.675 12.4181 19.095 12.1604 19.3506C11.9115 19.5995 11.4804 19.6017 11.2271 19.3595L7.53174 15.8079C7.22064 15.4946 6.86288 15.3257 6.52068 15.3257Z" fill="#EDA600"/>
<path d="M20.6107 12.6206C19.3907 15.112 19.5485 18.5991 21.3795 21.3973C21.5862 21.7751 21.9395 21.5906 21.7595 21.2017C19.5485 16.47 21.8662 13.0607 21.8662 13.0607L20.6107 12.6206Z" fill="#EDA600"/>
<path d="M15.8153 3.27898C16.4864 3.1034 17.2019 3.11896 17.8974 3.2812C18.5885 3.44789 19.2796 3.79904 19.7929 4.37245C20.2951 4.94141 20.6039 5.63261 20.7084 6.35714C20.8062 7.07501 20.7151 7.8151 20.3751 8.42851C20.3351 7.73954 20.2151 7.10612 20.0129 6.52161C19.9084 6.23046 19.7862 5.95265 19.6373 5.69039C19.4907 5.43036 19.3173 5.17255 19.1329 4.96141C18.7574 4.52802 18.2485 4.1902 17.6774 3.92795C17.1041 3.6568 16.4797 3.45678 15.8153 3.27898Z" fill="#B0BEC5"/>
<path d="M16 5.38328C16.3711 5.14769 16.8355 5.0988 17.2733 5.17659C17.7155 5.25437 18.1377 5.4744 18.471 5.77888C18.8021 6.08781 19.0376 6.47675 19.1843 6.88124C19.2554 7.08349 19.2909 7.29685 19.3243 7.50354C19.3354 7.7169 19.3354 7.93026 19.302 8.14362C19.1487 7.98138 19.0287 7.81914 18.9154 7.66134C18.7843 7.51243 18.6821 7.35464 18.5643 7.21017C18.3332 6.92347 18.1088 6.66344 17.8666 6.4323C17.6177 6.20783 17.3555 6.01002 17.0511 5.83889C16.7489 5.66331 16.4089 5.51663 16 5.38328Z" fill="#90A4AE"/>
<path d="M3.29392 19.4661C3.60724 20.0795 3.93389 20.6484 4.31387 21.1507C4.69162 21.653 5.12494 22.0797 5.62935 22.3575C5.87379 22.4931 6.16488 22.6109 6.44931 22.6998C6.73596 22.7909 7.03373 22.8532 7.34038 22.8954C7.95368 22.9709 8.59809 22.9576 9.28027 22.8532C8.75141 23.3132 8.04478 23.5577 7.32482 23.611C6.59597 23.6599 5.85601 23.5021 5.19382 23.1287C4.52719 22.7487 4.03833 22.1442 3.73167 21.5019C3.42502 20.8551 3.26059 20.1595 3.29392 19.4661Z" fill="#B0BEC5"/>
<path d="M5.39527 19.208C5.61081 19.5814 5.82413 19.8814 6.05746 20.1437C6.28855 20.4059 6.53743 20.6215 6.80853 20.8171C7.08407 21.006 7.38627 21.1727 7.71515 21.3394C7.87958 21.4238 8.05513 21.4905 8.22845 21.5883C8.40844 21.6661 8.59066 21.7483 8.78176 21.8661C8.57955 21.9417 8.37289 21.9861 8.16179 22.0195C7.95291 22.0284 7.73737 22.0395 7.52405 22.0106C7.0974 21.9528 6.67076 21.8039 6.29744 21.5439C5.9308 21.2794 5.62637 20.9127 5.45971 20.4971C5.29083 20.0837 5.24194 19.6214 5.39527 19.208Z" fill="#90A4AE"/>
<defs>
<radialGradient id="paint0_radial_367_1824" cx="0" cy="0" r="1" gradientUnits="userSpaceOnUse" gradientTransform="translate(11.5633 10.721) rotate(-45.0051) scale(20.2246)">
<stop offset="0.3533" stop-color="#FFCA28"/>
<stop offset="0.8723" stop-color="#FFB300"/>
</radialGradient>
</defs>
</svg>
