<svg width="64" height="64" viewBox="0 0 64 64" fill="none" xmlns="http://www.w3.org/2000/svg">
<g clip-path="url(#clip0_294_2631)">
<path d="M20.6656 30.2322C20.6656 29.0841 19.5492 27.8648 17.6172 27.8648C15.4477 27.8648 13.0645 29.4562 12.7002 32.6313C12.3281 35.838 14.3234 37.2632 16.3345 37.2632C18.3457 37.2632 19.3987 36.4794 20.4756 35.4342C19.5492 34.2703 18.3536 34.8087 18.124 34.9275C17.8706 35.0542 17.546 35.2284 16.8809 35.2284C16.1049 35.2284 15.3131 34.88 15.3131 33.431C20.2855 32.9401 20.6656 31.3803 20.6656 30.2322ZM18.2031 30.4222C18.1715 30.7785 18.0289 31.3882 15.5111 31.7287C16.0416 29.8442 17.0551 29.7017 17.5222 29.7017C17.9577 29.7017 18.2348 30.0422 18.2031 30.4222ZM9.77855 30.731C9.77855 30.731 8.70964 34.0882 8.62254 34.3653C8.59087 34.0803 7.807 28.0548 7.807 28.0548C5.9859 28.0548 5.012 29.3533 4.49734 30.7231C4.49734 30.7231 3.19881 34.0882 3.08796 34.3732C3.08004 34.1119 2.89002 30.7627 2.89002 30.7627C2.77917 29.0841 1.2431 28.0627 0 28.0627L1.50439 37.192C3.41259 37.1841 4.44192 35.8935 4.98033 34.5237C4.98033 34.5237 6.12842 31.5545 6.17592 31.4199C6.18384 31.5466 6.99938 37.192 6.99938 37.192C8.9155 37.192 9.94482 35.9806 10.4991 34.6583L13.1832 28.0627C11.2909 28.0627 10.2932 29.3533 9.77855 30.731ZM27.6966 27.8489C26.5169 27.8489 25.6143 28.4903 24.8541 29.4325V29.4246L25.5351 23.9375C23.9673 23.9375 22.6926 25.2994 22.4471 27.3263L21.2594 37.1207C22.1621 37.1207 23.1201 36.8594 23.6348 36.1943C24.094 36.7882 24.7829 37.2632 25.8043 37.2632C28.4488 37.2632 30.262 34.1911 30.262 31.309C30.2462 28.6803 28.9714 27.8489 27.6966 27.8489ZM27.4512 32.56C27.1741 34.1674 26.2794 35.26 25.4163 35.26C24.5453 35.26 24.1732 34.8721 24.1732 34.8721C24.3395 33.4627 24.4424 32.5996 24.7591 31.8554C25.0758 31.1111 25.828 29.9234 26.6119 29.9234C27.3799 29.9234 27.7283 30.9448 27.4512 32.56ZM36.8655 28.0627H35.0207L35.0286 27.9677C35.1553 26.7642 35.4403 26.1307 36.3825 26.0278C37.0239 25.9645 37.3089 25.6319 37.3802 25.2677C37.4356 24.9827 37.6098 23.9929 37.6098 23.9929C33.9042 23.9692 32.7403 25.5686 32.4394 28.0073L32.4315 28.0627H32.3919C31.7902 28.0627 31.1251 28.7436 31.0142 29.6067L30.9746 29.9234H32.2098L31.1726 38.4905L30.8559 40.0266C30.8955 40.0266 30.943 40.0345 30.9826 40.0345C32.7166 39.9712 33.8251 38.6014 34.0705 36.614L34.8781 29.9234H35.4561C36.0262 29.9234 36.6913 29.3533 36.8101 28.4032L36.8655 28.0627ZM46.462 27.9043C44.3321 27.9043 42.3209 29.4721 41.7033 31.9345C41.0857 34.397 42.02 37.3108 45.1555 37.3108C48.2831 37.3108 50.0883 34.2782 50.0883 31.7524C50.0883 29.2425 48.386 27.9043 46.462 27.9043ZM47.325 32.4809C47.2142 33.5973 46.7232 35.2917 45.3772 35.2917C44.0233 35.2917 44.2133 33.3122 44.3479 32.37C44.4904 31.3644 45.0526 29.9313 46.264 29.9313C47.3488 29.9313 47.4517 31.2219 47.325 32.4809ZM60.6112 30.731C60.6112 30.731 59.5423 34.0882 59.4552 34.3653C59.4235 34.0803 58.6396 28.0548 58.6396 28.0548C56.8185 28.0548 55.8446 29.3533 55.33 30.7231C55.33 30.7231 54.0314 34.0882 53.9206 34.3732C53.9127 34.1119 53.7226 30.7627 53.7226 30.7627C53.6118 29.0841 52.0757 28.0627 50.8326 28.0627L52.3291 37.192C54.2373 37.1841 55.2666 35.8935 55.805 34.5237C55.805 34.5237 56.9531 31.5545 56.9927 31.4199C57.0006 31.5466 57.8162 37.192 57.8162 37.192C59.7323 37.192 60.7616 35.9806 61.3158 34.6583L64 28.0627C62.1156 28.0627 61.1179 29.3533 60.6112 30.731ZM38.6074 23.9929L37.0555 36.511L36.7388 38.055C36.7784 38.055 36.8259 38.0629 36.8655 38.0629C38.5362 38.0392 39.7239 36.5744 39.9456 34.7295L40.8403 27.548C41.1095 25.3548 39.803 23.9929 38.6074 23.9929Z" fill="#144C4E"/>
</g>
<defs>
<clipPath id="clip0_294_2631">
<rect width="64" height="64" fill="white"/>
</clipPath>
</defs>
</svg>
