<svg width="251" height="250" viewBox="0 0 251 250" fill="none" xmlns="http://www.w3.org/2000/svg">
<path d="M108.548 190.03H203.568V101.1L108.548 101.1L108.548 190.03Z" fill="#DAFF99"/>
<path d="M203.568 191.04H108.568C108.303 191.04 108.049 190.935 107.861 190.747C107.674 190.56 107.568 190.305 107.568 190.04V101.1C107.568 100.835 107.674 100.581 107.861 100.393C108.049 100.205 108.303 100.1 108.568 100.1H203.568C203.834 100.1 204.088 100.205 204.275 100.393C204.463 100.581 204.568 100.835 204.568 101.1V190.04C204.568 190.305 204.463 190.56 204.275 190.747C204.088 190.935 203.834 191.04 203.568 191.04ZM109.568 189.04H202.568V102.1H109.568V189.04Z" fill="#093F68"/>
<path d="M203.568 111.13H126.288C126.023 111.13 125.769 111.025 125.581 110.837C125.394 110.649 125.288 110.395 125.288 110.13C125.288 109.865 125.394 109.61 125.581 109.423C125.769 109.235 126.023 109.13 126.288 109.13H203.568C203.834 109.13 204.088 109.235 204.275 109.423C204.463 109.61 204.568 109.865 204.568 110.13C204.568 110.395 204.463 110.649 204.275 110.837C204.088 111.025 203.834 111.13 203.568 111.13Z" fill="#093F68"/>
<path d="M190.518 50.01V194.45C190.518 196.307 189.781 198.087 188.468 199.4C187.155 200.713 185.375 201.45 183.518 201.45H68.0183C66.1618 201.45 64.3813 200.713 63.0686 199.4C61.7558 198.087 61.0183 196.307 61.0183 194.45V50C61.0183 47.3479 62.0719 44.8043 63.9473 42.929C65.8226 41.0536 68.3661 40 71.0183 40H180.488C181.805 39.9961 183.109 40.2522 184.327 40.7536C185.544 41.255 186.65 41.9918 187.582 42.9219C188.514 43.8519 189.253 44.9568 189.757 46.1732C190.261 47.3896 190.52 48.6935 190.518 50.01Z" fill="white"/>
<path d="M183.528 202.44H68.0183C65.8966 202.44 63.8618 201.597 62.3615 200.097C60.8612 198.597 60.0183 196.562 60.0183 194.44V50C60.0183 47.0826 61.1772 44.2847 63.2401 42.2218C65.303 40.1589 68.1009 39 71.0183 39H180.488C183.406 39 186.204 40.1589 188.266 42.2218C190.329 44.2847 191.488 47.0826 191.488 50V194.45C191.486 196.563 190.647 198.589 189.156 200.086C187.664 201.583 185.641 202.429 183.528 202.44ZM71.0383 40.98C68.6514 40.98 66.3622 41.9282 64.6743 43.616C62.9865 45.3039 62.0383 47.593 62.0383 49.98V194.45C62.0383 196.041 62.6705 197.567 63.7957 198.693C64.9209 199.818 66.447 200.45 68.0383 200.45H183.528C185.12 200.45 186.646 199.818 187.771 198.693C188.896 197.567 189.528 196.041 189.528 194.45V50.01C189.528 47.623 188.58 45.3339 186.892 43.646C185.204 41.9582 182.915 41.01 180.528 41.01L71.0383 40.98Z" fill="#093F68"/>
<path d="M190.518 50V54.42H61.0283V50C61.0283 47.3479 62.0819 44.8043 63.9572 42.929C65.8326 41.0536 68.3762 40 71.0283 40H180.488C181.804 39.9961 183.108 40.2518 184.324 40.7526C185.541 41.2534 186.647 41.9894 187.579 42.9183C188.511 43.8473 189.25 44.9511 189.754 46.1663C190.259 47.3815 190.518 48.6843 190.518 50Z" fill="white"/>
<path d="M190.518 55.42H61.0283C60.7631 55.42 60.5087 55.3146 60.3212 55.1271C60.1337 54.9396 60.0283 54.6852 60.0283 54.42V50C60.0283 47.0826 61.1872 44.2847 63.2501 42.2218C65.313 40.1589 68.1109 39 71.0283 39H180.488C183.406 39 186.204 40.1589 188.266 42.2218C190.329 44.2847 191.488 47.0826 191.488 50V54.42C191.488 54.6801 191.387 54.93 191.206 55.1167C191.025 55.3034 190.778 55.4122 190.518 55.42ZM62.0283 53.42H189.518V50C189.518 47.6131 188.57 45.3239 186.882 43.636C185.194 41.9482 182.905 41 180.518 41H71.0483C68.6614 41 66.3722 41.9482 64.6844 43.636C62.9965 45.3239 62.0483 47.6131 62.0483 50L62.0283 53.42Z" fill="#093F68"/>
<path d="M190.518 54.4199H61.0283V92.6399H190.518V54.4199Z" fill="#DAFF99"/>
<path d="M190.518 93.6399H61.0283C60.7631 93.6399 60.5087 93.5346 60.3212 93.347C60.1337 93.1595 60.0283 92.9051 60.0283 92.6399V54.4199C60.0283 54.1547 60.1337 53.9004 60.3212 53.7128C60.5087 53.5253 60.7631 53.4199 61.0283 53.4199H190.518C190.784 53.4199 191.038 53.5253 191.225 53.7128C191.413 53.9004 191.518 54.1547 191.518 54.4199V92.6399C191.518 92.9051 191.413 93.1595 191.225 93.347C191.038 93.5346 190.784 93.6399 190.518 93.6399ZM62.0283 91.6399H189.518V55.4199H62.0283V91.6399Z" fill="#093F68"/>
<path d="M93.9982 132.56C101.763 132.56 108.058 126.265 108.058 118.5C108.058 110.735 101.763 104.44 93.9982 104.44C86.2331 104.44 79.9382 110.735 79.9382 118.5C79.9382 126.265 86.2331 132.56 93.9982 132.56Z" fill="#F56132"/>
<path d="M93.9984 133.52C91.0172 133.52 88.1032 132.635 85.6253 130.978C83.1474 129.32 81.2172 126.965 80.0791 124.209C78.941 121.454 78.6463 118.423 79.2323 115.5C79.8182 112.577 81.2585 109.893 83.3707 107.79C85.4829 105.686 88.172 104.256 91.0973 103.682C94.0226 103.108 97.0525 103.415 99.8033 104.564C102.554 105.713 104.902 107.652 106.55 110.137C108.197 112.621 109.07 115.539 109.058 118.52C109.037 122.502 107.442 126.314 104.62 129.124C101.799 131.935 97.9806 133.515 93.9984 133.52ZM93.9984 105.41C91.4128 105.41 88.8854 106.177 86.7364 107.615C84.5874 109.053 82.9136 111.096 81.9269 113.486C80.9402 115.876 80.6851 118.505 81.1939 121.04C81.7027 123.575 82.9525 125.902 84.785 127.726C86.6175 129.55 88.9501 130.789 91.4875 131.286C94.0248 131.783 96.6526 131.516 99.0379 130.518C101.423 129.521 103.459 127.838 104.887 125.682C106.314 123.526 107.07 120.995 107.058 118.41C107.029 114.964 105.641 111.67 103.195 109.243C100.749 106.815 97.444 105.452 93.9984 105.45V105.41Z" fill="#093F68"/>
<path d="M171.598 109.07H122.488C122.223 109.07 121.969 108.964 121.781 108.777C121.594 108.589 121.488 108.335 121.488 108.07C121.488 107.805 121.594 107.55 121.781 107.363C121.969 107.175 122.223 107.07 122.488 107.07H171.598C171.863 107.07 172.118 107.175 172.305 107.363C172.493 107.55 172.598 107.805 172.598 108.07C172.598 108.335 172.493 108.589 172.305 108.777C172.118 108.964 171.863 109.07 171.598 109.07Z" fill="#DFEAEF"/>
<path d="M171.598 119.52H122.488C122.223 119.52 121.969 119.415 121.781 119.227C121.594 119.04 121.488 118.785 121.488 118.52C121.488 118.255 121.594 118 121.781 117.813C121.969 117.625 122.223 117.52 122.488 117.52H171.598C171.863 117.52 172.118 117.625 172.305 117.813C172.493 118 172.598 118.255 172.598 118.52C172.598 118.785 172.493 119.04 172.305 119.227C172.118 119.415 171.863 119.52 171.598 119.52Z" fill="#DFEAEF"/>
<path d="M156.058 129.93H147.058C146.793 129.93 146.539 129.825 146.351 129.637C146.164 129.45 146.058 129.195 146.058 128.93C146.058 128.665 146.164 128.411 146.351 128.223C146.539 128.036 146.793 127.93 147.058 127.93H156.058C156.324 127.93 156.578 128.036 156.765 128.223C156.953 128.411 157.058 128.665 157.058 128.93C157.058 129.195 156.953 129.45 156.765 129.637C156.578 129.825 156.324 129.93 156.058 129.93Z" fill="#DFEAEF"/>
<path d="M139.268 129.93H122.488C122.223 129.93 121.969 129.825 121.781 129.637C121.594 129.45 121.488 129.195 121.488 128.93C121.488 128.665 121.594 128.411 121.781 128.223C121.969 128.036 122.223 127.93 122.488 127.93H139.268C139.533 127.93 139.788 128.036 139.975 128.223C140.163 128.411 140.268 128.665 140.268 128.93C140.268 129.195 140.163 129.45 139.975 129.637C139.788 129.825 139.533 129.93 139.268 129.93Z" fill="#DFEAEF"/>
<path d="M157.548 177.78C165.313 177.78 171.608 171.485 171.608 163.72C171.608 155.955 165.313 149.66 157.548 149.66C149.783 149.66 143.488 155.955 143.488 163.72C143.488 171.485 149.783 177.78 157.548 177.78Z" fill="#FFBC0E"/>
<path d="M157.548 178.78C154.569 178.782 151.657 177.901 149.179 176.247C146.701 174.593 144.769 172.242 143.628 169.49C142.486 166.739 142.186 163.71 142.766 160.788C143.346 157.866 144.78 155.182 146.886 153.075C148.992 150.967 151.675 149.532 154.597 148.95C157.518 148.368 160.547 148.666 163.299 149.806C166.052 150.945 168.404 152.875 170.06 155.352C171.715 157.829 172.598 160.741 172.598 163.72C172.593 167.711 171.006 171.537 168.185 174.36C165.364 177.183 161.539 178.772 157.548 178.78ZM157.548 150.66C154.965 150.658 152.439 151.422 150.29 152.856C148.141 154.29 146.465 156.329 145.475 158.715C144.485 161.102 144.225 163.728 144.728 166.262C145.231 168.796 146.474 171.124 148.3 172.951C150.126 174.779 152.453 176.024 154.987 176.528C157.52 177.033 160.147 176.775 162.534 175.787C164.921 174.799 166.961 173.125 168.397 170.977C169.832 168.829 170.598 166.304 170.598 163.72C170.593 160.26 169.217 156.942 166.771 154.495C164.325 152.047 161.009 150.668 157.548 150.66Z" fill="#093F68"/>
<path d="M129.058 154.29H79.9382C79.673 154.29 79.4187 154.185 79.2311 153.997C79.0436 153.81 78.9382 153.555 78.9382 153.29C78.9382 153.025 79.0436 152.77 79.2311 152.583C79.4187 152.395 79.673 152.29 79.9382 152.29H129.058C129.323 152.29 129.578 152.395 129.765 152.583C129.953 152.77 130.058 153.025 130.058 153.29C130.058 153.555 129.953 153.81 129.765 153.997C129.578 154.185 129.323 154.29 129.058 154.29Z" fill="#DFEAEF"/>
<path d="M129.058 164.72H79.9382C79.673 164.72 79.4187 164.615 79.2311 164.427C79.0436 164.24 78.9382 163.985 78.9382 163.72C78.9382 163.455 79.0436 163.201 79.2311 163.013C79.4187 162.826 79.673 162.72 79.9382 162.72H129.058C129.323 162.72 129.578 162.826 129.765 163.013C129.953 163.201 130.058 163.455 130.058 163.72C130.058 163.985 129.953 164.24 129.765 164.427C129.578 164.615 129.323 164.72 129.058 164.72Z" fill="#DFEAEF"/>
<path d="M116.108 175.15H79.9382C79.673 175.15 79.4187 175.045 79.2311 174.857C79.0436 174.669 78.9382 174.415 78.9382 174.15C78.9382 173.885 79.0436 173.63 79.2311 173.443C79.4187 173.255 79.673 173.15 79.9382 173.15H116.108C116.373 173.15 116.628 173.255 116.815 173.443C117.003 173.63 117.108 173.885 117.108 174.15C117.108 174.415 117.003 174.669 116.815 174.857C116.628 175.045 116.373 175.15 116.108 175.15Z" fill="#DFEAEF"/>
<path d="M61.0283 92.6398L104.498 61.0898L130.878 83.3298L153.878 64.6198L190.518 92.6398H61.0283Z" fill="#70CC40"/>
<path d="M190.518 93.6398H61.0282C60.8166 93.6406 60.6102 93.5742 60.4387 93.4502C60.2672 93.3262 60.1395 93.151 60.0739 92.9498C60.0083 92.7485 60.0082 92.5317 60.0737 92.3305C60.1392 92.1292 60.2668 91.9539 60.4382 91.8298L103.918 60.2798C104.094 60.1428 104.31 60.0684 104.533 60.0684C104.756 60.0684 104.973 60.1428 105.148 60.2798L130.888 81.9798L153.248 63.7898C153.425 63.6503 153.643 63.5744 153.868 63.5744C154.093 63.5744 154.312 63.6503 154.488 63.7898L191.128 91.7898C191.293 91.9175 191.413 92.0933 191.473 92.2927C191.533 92.4922 191.529 92.7053 191.462 92.9024C191.395 93.0995 191.268 93.2707 191.098 93.3921C190.929 93.5136 190.726 93.5792 190.518 93.5798V93.6398ZM64.1082 91.6398H187.568L153.898 65.8898L131.508 84.1098C131.329 84.2595 131.102 84.3415 130.868 84.3415C130.634 84.3415 130.408 84.2595 130.228 84.1098L104.458 62.3598L64.1082 91.6398Z" fill="#093F68"/>
<path d="M136.558 89.0799C136.324 89.0775 136.097 88.9925 135.918 88.8399L130.238 84.0999C130.137 84.0158 130.054 83.9127 129.993 83.7963C129.931 83.68 129.893 83.5527 129.881 83.4218C129.869 83.2909 129.883 83.1588 129.922 83.0332C129.961 82.9077 130.024 82.791 130.108 82.6899C130.193 82.5887 130.296 82.5052 130.412 82.4439C130.528 82.3827 130.656 82.3449 130.787 82.3328C130.917 82.3208 131.049 82.3346 131.175 82.3736C131.301 82.4125 131.417 82.4758 131.518 82.5599L137.208 87.3099C137.309 87.3945 137.392 87.4982 137.452 87.6149C137.513 87.7316 137.55 87.859 137.561 87.99C137.572 88.1209 137.557 88.2528 137.517 88.378C137.477 88.5033 137.413 88.6194 137.328 88.7199C137.234 88.8327 137.117 88.9235 136.984 88.9857C136.851 89.048 136.705 89.0801 136.558 89.0799Z" fill="#093F68"/>
<path d="M71.4482 48.5498C72.5638 48.5498 73.4682 47.6454 73.4682 46.5298C73.4682 45.4142 72.5638 44.5098 71.4482 44.5098C70.3326 44.5098 69.4282 45.4142 69.4282 46.5298C69.4282 47.6454 70.3326 48.5498 71.4482 48.5498Z" fill="#F56132"/>
<path d="M71.4483 44.52C71.8439 44.52 72.2306 44.6373 72.5595 44.8571C72.8884 45.0768 73.1447 45.3892 73.2961 45.7546C73.4475 46.1201 73.4871 46.5222 73.4099 46.9102C73.3327 47.2981 73.1423 47.6545 72.8626 47.9342C72.5828 48.2139 72.2265 48.4044 71.8385 48.4816C71.4506 48.5587 71.0484 48.5191 70.683 48.3678C70.3175 48.2164 70.0052 47.96 69.7854 47.6311C69.5656 47.3022 69.4483 46.9156 69.4483 46.52C69.4483 45.9896 69.659 45.4809 70.0341 45.1058C70.4092 44.7307 70.9179 44.52 71.4483 44.52ZM71.4483 43.02C70.7489 43.02 70.0652 43.2278 69.4841 43.6171C68.903 44.0063 68.4505 44.5594 68.1843 45.2061C67.918 45.8529 67.8499 46.5642 67.9885 47.2498C68.1272 47.9353 68.4664 48.5642 68.963 49.0567C69.4597 49.5492 70.0915 49.883 70.7782 50.0158C71.4649 50.1486 72.1756 50.0744 72.8201 49.8026C73.4646 49.5308 74.0138 49.0737 74.3981 48.4893C74.7823 47.9048 74.9843 47.2194 74.9783 46.52C74.9757 45.5855 74.6026 44.6902 73.9409 44.0304C73.2792 43.3705 72.3828 43 71.4483 43V43.02Z" fill="#093F68"/>
<path d="M79.9384 48.5498C81.0541 48.5498 81.9585 47.6454 81.9585 46.5298C81.9585 45.4142 81.0541 44.5098 79.9384 44.5098C78.8228 44.5098 77.9185 45.4142 77.9185 46.5298C77.9185 47.6454 78.8228 48.5498 79.9384 48.5498Z" fill="#FFBC0E"/>
<path d="M79.9383 44.52C80.3339 44.52 80.7206 44.6373 81.0495 44.8571C81.3784 45.0768 81.6347 45.3892 81.7861 45.7546C81.9375 46.1201 81.9771 46.5222 81.8999 46.9102C81.8227 47.2981 81.6322 47.6545 81.3525 47.9342C81.0728 48.2139 80.7165 48.4044 80.3285 48.4816C79.9405 48.5587 79.5384 48.5191 79.1729 48.3678C78.8075 48.2164 78.4951 47.96 78.2754 47.6311C78.0556 47.3022 77.9383 46.9156 77.9383 46.52C77.9383 45.9896 78.149 45.4809 78.5241 45.1058C78.8992 44.7307 79.4079 44.52 79.9383 44.52ZM79.9383 43.02C79.2389 43.02 78.5552 43.2278 77.9741 43.6171C77.3929 44.0063 76.9405 44.5594 76.6743 45.2061C76.408 45.8529 76.3398 46.5642 76.4785 47.2498C76.6172 47.9353 76.9564 48.5642 77.453 49.0567C77.9497 49.5492 78.5815 49.883 79.2682 50.0158C79.9549 50.1486 80.6656 50.0744 81.3101 49.8026C81.9546 49.5308 82.5038 49.0737 82.888 48.4893C83.2723 47.9048 83.4743 47.2194 83.4683 46.52C83.4657 45.5855 83.0926 44.6902 82.4309 44.0304C81.7692 43.3705 80.8728 43 79.9383 43V43.02Z" fill="#093F68"/>
<path d="M88.4285 48.5498C89.5441 48.5498 90.4485 47.6454 90.4485 46.5298C90.4485 45.4142 89.5441 44.5098 88.4285 44.5098C87.3128 44.5098 86.4084 45.4142 86.4084 46.5298C86.4084 47.6454 87.3128 48.5498 88.4285 48.5498Z" fill="#70CC40"/>
<path d="M88.4283 44.52C88.8239 44.52 89.2106 44.6373 89.5395 44.8571C89.8683 45.0768 90.1247 45.3892 90.2761 45.7546C90.4274 46.1201 90.4671 46.5222 90.3899 46.9102C90.3127 47.2981 90.1222 47.6545 89.8425 47.9342C89.5628 48.2139 89.2065 48.4044 88.8185 48.4816C88.4305 48.5587 88.0284 48.5191 87.6629 48.3678C87.2975 48.2164 86.9851 47.96 86.7654 47.6311C86.5456 47.3022 86.4283 46.9156 86.4283 46.52C86.4283 45.9896 86.639 45.4809 87.0141 45.1058C87.3892 44.7307 87.8979 44.52 88.4283 44.52ZM88.4283 43.02C87.7289 43.02 87.0452 43.2278 86.4641 43.6171C85.8829 44.0063 85.4305 44.5594 85.1642 45.2061C84.898 45.8529 84.8298 46.5642 84.9685 47.2498C85.1072 47.9353 85.4463 48.5642 85.943 49.0567C86.4397 49.5492 87.0715 49.883 87.7582 50.0158C88.4449 50.1486 89.1556 50.0744 89.8001 49.8026C90.4446 49.5308 90.9938 49.0737 91.378 48.4893C91.7623 47.9048 91.9642 47.2194 91.9583 46.52C91.9557 45.5855 91.5826 44.6902 90.9209 44.0304C90.2591 43.3705 89.3628 43 88.4283 43V43.02Z" fill="#093F68"/>
<path d="M53.0184 121.29L73.1784 115.94C73.2945 115.91 73.4164 115.911 73.5321 115.943C73.6478 115.975 73.7532 116.036 73.838 116.121C73.9228 116.205 73.984 116.311 74.0156 116.426C74.0473 116.542 74.0482 116.664 74.0184 116.78L68.6684 136.94C68.6394 137.058 68.5793 137.167 68.4942 137.254C68.4092 137.341 68.3024 137.403 68.1849 137.435C68.0675 137.466 67.9437 137.466 67.8264 137.434C67.7092 137.401 67.6028 137.338 67.5184 137.25L63.1484 132.88L54.2784 141.74C54.2147 141.809 54.1374 141.864 54.0513 141.902C53.9653 141.94 53.8723 141.959 53.7784 141.959C53.6844 141.959 53.5915 141.94 53.5054 141.902C53.4194 141.864 53.342 141.809 53.2784 141.74L48.1884 136.65C48.1193 136.586 48.0641 136.509 48.0264 136.423C47.9887 136.337 47.9692 136.244 47.9692 136.15C47.9692 136.056 47.9887 135.963 48.0264 135.877C48.0641 135.791 48.1193 135.714 48.1884 135.65L57.0484 126.78L52.6784 122.41C52.5986 122.323 52.5428 122.217 52.5166 122.101C52.4904 121.986 52.4947 121.866 52.529 121.753C52.5633 121.64 52.6265 121.538 52.7123 121.457C52.7981 121.376 52.9036 121.318 53.0184 121.29Z" fill="white"/>
<path d="M53.7883 142.95C53.5667 142.95 53.3474 142.905 53.1431 142.819C52.9388 142.734 52.7536 142.608 52.5983 142.45L47.4983 137.35C47.3405 137.194 47.2152 137.009 47.1296 136.805C47.0441 136.601 47 136.381 47 136.16C47 135.938 47.0441 135.719 47.1296 135.515C47.2152 135.31 47.3405 135.125 47.4983 134.97L55.6583 126.81L51.9883 123.14C51.7775 122.931 51.6257 122.67 51.5483 122.384C51.471 122.097 51.471 121.795 51.5482 121.509C51.6254 121.222 51.7771 120.961 51.988 120.753C52.1988 120.544 52.4611 120.394 52.7483 120.32L72.9083 114.98C73.1932 114.906 73.4925 114.908 73.7765 114.985C74.0604 115.062 74.3193 115.213 74.5274 115.421C74.7355 115.629 74.8857 115.888 74.963 116.172C75.0404 116.456 75.0422 116.755 74.9683 117.04L69.6283 137.2C69.5538 137.487 69.4045 137.749 69.1957 137.96C68.9868 138.171 68.7259 138.323 68.4394 138.4C68.1529 138.477 67.851 138.477 67.5645 138.4C67.278 138.323 67.0171 138.171 66.8083 137.96L63.1383 134.29L54.9783 142.45C54.8231 142.608 54.6379 142.734 54.4336 142.819C54.2293 142.905 54.0099 142.95 53.7883 142.95ZM49.1283 136.16L53.7883 140.82L62.4283 132.17C62.5213 132.076 62.6319 132.002 62.7538 131.951C62.8756 131.9 63.0063 131.874 63.1383 131.874C63.2704 131.874 63.4011 131.9 63.5229 131.951C63.6448 132.002 63.7554 132.076 63.8483 132.17L67.8483 136.17L72.9083 117.06L53.7883 122.11L57.7883 126.11C57.881 126.203 57.9543 126.314 58.0041 126.436C58.0539 126.558 58.0791 126.688 58.0783 126.82C58.0791 126.951 58.0539 127.082 58.0041 127.204C57.9543 127.326 57.881 127.436 57.7883 127.53L49.1283 136.16Z" fill="#093F68"/>
<path d="M99.4583 168.46H56.3884C55.1015 168.46 54.0583 169.503 54.0583 170.79V206.72C54.0583 208.007 55.1015 209.05 56.3884 209.05H99.4583C100.745 209.05 101.788 208.007 101.788 206.72V170.79C101.788 169.503 100.745 168.46 99.4583 168.46Z" fill="#DAFF99"/>
<path d="M99.4484 210.06H56.3884C55.5043 210.057 54.6573 209.704 54.0331 209.078C53.4089 208.452 53.0583 207.604 53.0583 206.72V170.8C53.0583 169.916 53.4089 169.068 54.0331 168.442C54.6573 167.816 55.5043 167.463 56.3884 167.46H99.4484C100.333 167.463 101.181 167.815 101.807 168.441C102.433 169.067 102.786 169.915 102.788 170.8V206.72C102.786 207.605 102.433 208.453 101.807 209.079C101.181 209.705 100.333 210.057 99.4484 210.06ZM56.3884 169.46C56.2129 169.46 56.0391 169.495 55.8771 169.562C55.715 169.63 55.568 169.728 55.4443 169.853C55.3207 169.978 55.223 170.125 55.1567 170.288C55.0905 170.45 55.057 170.624 55.0584 170.8V206.72C55.057 206.895 55.0905 207.069 55.1567 207.232C55.223 207.395 55.3207 207.542 55.4443 207.667C55.568 207.791 55.715 207.89 55.8771 207.958C56.0391 208.025 56.2129 208.06 56.3884 208.06H99.4484C99.8037 208.06 100.145 207.919 100.396 207.667C100.647 207.416 100.788 207.075 100.788 206.72V170.8C100.788 170.445 100.647 170.104 100.396 169.852C100.145 169.601 99.8037 169.46 99.4484 169.46H56.3884Z" fill="#093F68"/>
<path d="M101.038 177.19H54.0383C53.7731 177.19 53.5188 177.085 53.3312 176.897C53.1437 176.71 53.0383 176.455 53.0383 176.19C53.0383 175.925 53.1437 175.67 53.3312 175.483C53.5188 175.295 53.7731 175.19 54.0383 175.19H101.038C101.304 175.19 101.558 175.295 101.745 175.483C101.933 175.67 102.038 175.925 102.038 176.19C102.038 176.455 101.933 176.71 101.745 176.897C101.558 177.085 101.304 177.19 101.038 177.19Z" fill="#093F68"/>
<path d="M93.2284 187.76H62.6084C62.3432 187.76 62.0888 187.654 61.9013 187.467C61.7138 187.279 61.6084 187.025 61.6084 186.76C61.6084 186.495 61.7138 186.24 61.9013 186.053C62.0888 185.865 62.3432 185.76 62.6084 185.76H93.2284C93.4936 185.76 93.748 185.865 93.9355 186.053C94.123 186.24 94.2284 186.495 94.2284 186.76C94.2284 187.025 94.123 187.279 93.9355 187.467C93.748 187.654 93.4936 187.76 93.2284 187.76Z" fill="#093F68"/>
<path d="M86.1684 197.52H62.6084C62.3432 197.52 62.0888 197.415 61.9013 197.227C61.7138 197.04 61.6084 196.785 61.6084 196.52C61.6084 196.255 61.7138 196 61.9013 195.813C62.0888 195.625 62.3432 195.52 62.6084 195.52H86.1684C86.4336 195.52 86.688 195.625 86.8755 195.813C87.063 196 87.1684 196.255 87.1684 196.52C87.1684 196.785 87.063 197.04 86.8755 197.227C86.688 197.415 86.4336 197.52 86.1684 197.52Z" fill="#093F68"/>
</svg>
